<svg id="Layer_1" data-name="Layer 1" xmlns="http://www.w3.org/2000/svg" width="594.28" height="400" viewBox="0 0 594.28 400"><defs><style>.cls-1{fill:#707070;}.cls-2{fill:#020202;}.cls-3{fill:#fff;}.cls-4{stroke:#fff;stroke-miterlimit:10;}</style></defs><title>type</title><path d="M50.61,88.46H162.3v36.87h-65v7.93h62.46v29.36H97.3v7.64h65v37H50.61V88.46Z"/><path class="cls-1" d="M309.43,165.63h2.43c11.73,0,23.46,0,35.18,0,1.47,0,2.16.26,2.43,1.9a6.08,6.08,0,0,0,4.4,4.84,40.8,40.8,0,0,0,9.47,2.08,110.28,110.28,0,0,0,14-.29,18.12,18.12,0,0,0,5.37-1.64,3.62,3.62,0,0,0,2.4-3.67,3.53,3.53,0,0,0-2.59-3.54,64.9,64.9,0,0,0-8.33-1.9c-10.54-1.67-21.12-3.12-31.65-4.86a50,50,0,0,1-16.4-5.54c-8.48-4.73-12.8-12.16-13.84-21.63-0.73-6.57-.26-13,2.45-19.15,3.78-8.54,10.6-13.84,18.94-17.43,7.5-3.23,15.43-4.66,23.52-5.31a150.11,150.11,0,0,1,29.07.4c7.47,0.85,14.78,2.38,21.54,5.88,10.32,5.34,15.83,14,17.37,25.34,0.47,3.46.5,7,.74,10.72-1,.06-1.71.13-2.4,0.13-11.66,0-23.33,0-35,0-1.3,0-2.09-.19-2.57-1.66-1-3.08-3.47-4.87-6.45-5.78a39.37,39.37,0,0,0-20.27-.6,8.16,8.16,0,0,0-1.83.67c-1.79.89-3.13,2.08-3,4.34a4.13,4.13,0,0,0,3.26,3.92,39.55,39.55,0,0,0,5.52,1.17c12.22,1.87,24.51,3.42,36.66,5.68a58.75,58.75,0,0,1,14.84,5.24c7.52,3.69,11.94,10.09,13.48,18.35A40.79,40.79,0,0,1,427,183.94c-3.26,9.78-10.51,15.57-19.7,19.31-7.81,3.18-16,4.47-24.38,5.06a171.71,171.71,0,0,1-34.91-.79c-7.6-1-15-2.8-21.75-6.55-10.07-5.56-15.17-14.31-16.35-25.54C309.61,172.29,309.6,169.11,309.43,165.63Z"/><path d="M315.33,207.38h-2.14c-14.62,0-29.24,0-43.86,0-1.49,0-2.18-.39-2.56-1.89-0.81-3.2-1.89-6.33-2.75-9.52a1.76,1.76,0,0,0-2-1.51q-21.41,0-42.83,0a1.67,1.67,0,0,0-1.88,1.41c-1,3.31-2,6.58-3,9.89a1.8,1.8,0,0,1-2,1.62q-22.76-.07-45.52,0a7.4,7.4,0,0,1-.91-0.16c0.21-.72.37-1.41,0.6-2.08q20.32-57.27,40.61-114.55a2.82,2.82,0,0,1,3.2-2.27q30.31,0.11,60.62,0c1.6,0,2.4.37,3,2q20.22,57.2,40.55,114.35C314.73,205.44,315,206.22,315.33,207.38ZM253,160.21c-0.23-.94-0.37-1.67-0.58-2.38q-3.07-10.18-6.17-20.36c-1.74-5.71-1.74-5.66-7.64-5.69a2.1,2.1,0,0,0-2.42,1.81c-2.44,8.26-5,16.48-7.47,24.72-0.17.57-.27,1.16-0.43,1.89H253Z"/><path class="cls-2" d="M90.55,224.46h17.62v54H91.89L68.74,250.87v27.57H51v-54H67.31l23.23,27.72V224.46Z"/><path class="cls-2" d="M159.5,278.43l-2.94-7.62H134.5l-3,7.62h-20l24.83-54h20l23.91,54H159.5Zm-20-20.41h12.25l-6-15.79Z"/><path class="cls-2" d="M217,238.7a32.34,32.34,0,0,0-9.56-1.92q-3.61,0-3.61,2.39,0,1.85,2.31,2.85a49.71,49.71,0,0,0,7.34,2.23,93.65,93.65,0,0,1,10.44,3.23,18.65,18.65,0,0,1,7.26,5.12,13.37,13.37,0,0,1,3.1,9.2,14.8,14.8,0,0,1-3.31,9.82,19.6,19.6,0,0,1-8.93,5.89,38.42,38.42,0,0,1-12.5,1.92,55.15,55.15,0,0,1-15.73-2.35A46.52,46.52,0,0,1,180,270.66l7.21-13.47a40.47,40.47,0,0,0,11.16,6,33.47,33.47,0,0,0,11.24,2.5,6.84,6.84,0,0,0,3.44-.73,2.44,2.44,0,0,0,1.26-2.27q0-1.85-2.39-2.89a45.65,45.65,0,0,0-7.51-2.19,83.71,83.71,0,0,1-10.36-3,18.47,18.47,0,0,1-7.17-4.89,12.64,12.64,0,0,1-3-8.86,15.05,15.05,0,0,1,3.1-9.43,19.42,19.42,0,0,1,8.81-6.2,37.39,37.39,0,0,1,13.25-2.16,54.49,54.49,0,0,1,13.71,1.77,47,47,0,0,1,11.87,4.7l-7,13.63A67.56,67.56,0,0,0,217,238.7Z"/><path class="cls-2" d="M239.26,224.46h19.46V245.4h18.2V224.46h19.46v54H276.92V259h-18.2v19.48H239.26v-54Z"/><path class="cls-2" d="M300.16,224.46H321l12.16,35.42,12.08-35.42h19.88l-22.48,54H322.47Z"/><path class="cls-2" d="M368.86,224.46h19.46v54H368.86v-54Z"/><path class="cls-2" d="M396.7,224.46h19.46v39.12h24.49v14.86h-44v-54Z"/><path class="cls-2" d="M445.69,224.46h19.46v39.12h24.49v14.86h-44v-54Z"/><path class="cls-2" d="M494.67,224.46h49.74V238H514.13v6.62h27.51v13.55H514.13v6.7h31v13.55h-50.5v-54Z"/><path d="M60.48,311.43l-1.83-3.64h-1.9v3.64H51.7v-14h7.39a7.74,7.74,0,0,1,4.81,1.31,4.41,4.41,0,0,1,1.7,3.71,5.42,5.42,0,0,1-.62,2.65,4.53,4.53,0,0,1-1.8,1.79l3,4.56H60.48Zm-3.73-7.16h2.33a1.56,1.56,0,0,0,1.72-1.7,1.61,1.61,0,0,0-.45-1.21,1.77,1.77,0,0,0-1.27-.43H56.75v3.34Z"/><path d="M68.23,297.41H81.15v3.52H73.29v1.72h7.15v3.52H73.29v1.74h8.06v3.52H68.23v-14Z"/><path d="M92.68,301.11a8.4,8.4,0,0,0-2.48-.5q-0.94,0-.94.62a0.82,0.82,0,0,0,.6.74,12.82,12.82,0,0,0,1.91.58,24.34,24.34,0,0,1,2.71.84,4.84,4.84,0,0,1,1.88,1.33,3.47,3.47,0,0,1,.81,2.39,3.84,3.84,0,0,1-.86,2.55A5.08,5.08,0,0,1,94,311.19a10,10,0,0,1-3.25.5,14.34,14.34,0,0,1-4.08-.61,12.14,12.14,0,0,1-3.56-1.67l1.87-3.5a10.49,10.49,0,0,0,2.9,1.57,8.69,8.69,0,0,0,2.92.65,1.78,1.78,0,0,0,.89-0.19,0.63,0.63,0,0,0,.33-0.59,0.84,0.84,0,0,0-.62-0.75,11.86,11.86,0,0,0-1.95-.57,21.74,21.74,0,0,1-2.69-.79A4.78,4.78,0,0,1,84.88,304a3.28,3.28,0,0,1-.78-2.3,3.91,3.91,0,0,1,.81-2.45,5,5,0,0,1,2.29-1.61,9.71,9.71,0,0,1,3.44-.56,14.15,14.15,0,0,1,3.56.46,12.2,12.2,0,0,1,3.08,1.22l-1.83,3.54A17.64,17.64,0,0,0,92.68,301.11Z"/><path d="M98.23,297.41H112v3.66h-4.36v10.36h-5.05V301.07H98.23v-3.66Z"/><path d="M123.33,311.43l-0.76-2h-5.73l-0.78,2h-5.19l6.45-14h5.18l6.21,14h-5.38Zm-5.19-5.3h3.18l-1.57-4.1Z"/><path d="M135.38,307.25a2.16,2.16,0,0,0,1.57.64,1.94,1.94,0,0,0,1.48-.63,2.32,2.32,0,0,0,.59-1.65v-8.2h5.05v8.2a5.9,5.9,0,0,1-.88,3.23,5.8,5.8,0,0,1-2.5,2.15,8.75,8.75,0,0,1-3.77.76,9,9,0,0,1-3.8-.76,5.9,5.9,0,0,1-2.55-2.15,5.79,5.79,0,0,1-.9-3.23v-8.2h5.05v8.2A2.19,2.19,0,0,0,135.38,307.25Z"/><path d="M155.55,311.43l-1.83-3.64h-1.9v3.64h-5.05v-14h7.39a7.74,7.74,0,0,1,4.81,1.31,4.41,4.41,0,0,1,1.7,3.71,5.42,5.42,0,0,1-.62,2.65,4.53,4.53,0,0,1-1.8,1.79l3,4.56h-5.71Zm-3.73-7.16h2.33a1.56,1.56,0,0,0,1.72-1.7,1.61,1.61,0,0,0-.45-1.21,1.77,1.77,0,0,0-1.27-.43h-2.33v3.34Z"/><path d="M174.46,311.43l-0.76-2H168l-0.78,2H162l6.45-14h5.18l6.21,14h-5.38Zm-5.19-5.3h3.18l-1.57-4.1Z"/><path d="M191.72,297.41h4.58v14h-4.23l-6-7.16v7.16h-4.6v-14h4.23l6,7.2v-7.2Z"/><path d="M198.24,297.41H212v3.66h-4.36v10.36h-5.05V301.07h-4.33v-3.66Z"/><path d="M238,297.41h5.16l-5.16,14h-5.19l-2.29-8.38-2.35,8.38h-5.19l-5.12-14h5.4l2.46,9.2,2.44-9.2H233l2.48,9.2Z"/><path d="M244.84,297.41h12.92v3.52h-7.87v1.72H257v3.52h-7.15v1.74H258v3.52H244.84v-14Z"/><path d="M260.61,297.41h12.92v3.52h-7.87v1.72h7.15v3.52h-7.15v1.74h8.06v3.52H260.61v-14Z"/><path d="M292.13,311.43h-6l-3.22-4.88L281.44,308v3.4h-5.05v-14h5.05v5.12l4.55-5.12h5.82l-5.47,5.6Z"/><path class="cls-1" d="M323.43,296.43H334l0,2.34h-7.58v3.78h6.91v2.34h-6.91v5.54h-2.92v-14Z"/><path class="cls-1" d="M336.87,296.43H348v2.34h-8.26v3.46h7.41v2.34h-7.41v3.52h8.52v2.34H336.87v-14Z"/><path class="cls-1" d="M362.63,297.37a2.93,2.93,0,0,1,1.41,2.56,3,3,0,0,1-.71,2,3.48,3.48,0,0,1-2,1.11,4,4,0,0,1,2.39,1.2,3.34,3.34,0,0,1,.86,2.34,3.24,3.24,0,0,1-1.51,2.83,7.24,7.24,0,0,1-4.13,1h-7v-14h6.78A6.84,6.84,0,0,1,362.63,297.37Zm-2.22,4.32a1.48,1.48,0,0,0,.64-1.28,1.42,1.42,0,0,0-.64-1.24,3,3,0,0,0-1.78-.42h-3.7v3.4h3.7A3,3,0,0,0,360.41,301.69Zm0.4,5.94a1.57,1.57,0,0,0,.78-1.4,1.52,1.52,0,0,0-.78-1.35,4,4,0,0,0-2.18-.47h-3.7v3.7h3.7A3.93,3.93,0,0,0,360.81,307.63Z"/><path class="cls-1" d="M384.52,308.09v2.34H373.23v-1.94l5.75-5.44a8.69,8.69,0,0,0,1.33-1.5,2.41,2.41,0,0,0,.5-1.28,1.35,1.35,0,0,0-.65-1.19,3.26,3.26,0,0,0-1.81-.43,5.69,5.69,0,0,0-2.14.46,8.31,8.31,0,0,0-2.13,1.28l-1.16-2.06a11.57,11.57,0,0,1,2.84-1.49,8.89,8.89,0,0,1,3-.53,7.44,7.44,0,0,1,2.66.44,4.09,4.09,0,0,1,1.8,1.25,2.93,2.93,0,0,1,.64,1.87,3.92,3.92,0,0,1-.76,2.16,15.4,15.4,0,0,1-2.13,2.46l-3.88,3.6h7.43Z"/><path class="cls-1" d="M396.62,297.3A3.14,3.14,0,0,1,398,300a2.89,2.89,0,0,1-.57,1.74,3.75,3.75,0,0,1-1.57,1.22,4.6,4.6,0,0,1,2.13,1.4,3.31,3.31,0,0,1,.77,2.16,3.37,3.37,0,0,1-.72,2.14,4.48,4.48,0,0,1-2.06,1.41,10.21,10.21,0,0,1-6.25,0,4.56,4.56,0,0,1-2.06-1.39,3.43,3.43,0,0,1,.09-4.31A4.77,4.77,0,0,1,390,303a4.15,4.15,0,0,1-1.67-1.28,2.9,2.9,0,0,1-.6-1.78,3,3,0,0,1,1.38-2.61A7.7,7.7,0,0,1,396.62,297.3Zm-6.09,7.37a1.8,1.8,0,0,0-.83,1.58,1.87,1.87,0,0,0,.83,1.62,4,4,0,0,0,2.33.58,4.09,4.09,0,0,0,2.32-.57,1.84,1.84,0,0,0,.84-1.61,1.82,1.82,0,0,0-.84-1.59A5.07,5.07,0,0,0,390.53,304.67Zm0.36-5.94a1.74,1.74,0,0,0,0,2.8,3.37,3.37,0,0,0,2,.5,3.32,3.32,0,0,0,2-.5,1.75,1.75,0,0,0,0-2.8,3.32,3.32,0,0,0-2-.5A3.38,3.38,0,0,0,390.89,298.73Z"/><path class="cls-1" d="M401.79,302.67h5.47v1.8h-5.47v-1.8Z"/><path class="cls-1" d="M411.19,296.43h3.33l5.05,9,5-9h3.33v14h-2.68v-10l-4.75,8.6h-1.87l-4.77-8.6v10h-2.66v-14Z"/><path class="cls-1" d="M443.69,310.43l-1.35-3h-7.45l-1.35,3h-3l6.69-14h3l6.6,14h-3.14Zm-7.76-5.26h5.36l-2.66-5.88Z"/><path class="cls-1" d="M459,310.43l-2.64-4.14-0.54,0h-3.44v4.12h-2.92v-14h6.36a7.28,7.28,0,0,1,4.58,1.26,4.26,4.26,0,0,1,1.61,3.56,4.93,4.93,0,0,1-.77,2.8,4.66,4.66,0,0,1-2.25,1.74l3.36,4.64H459ZM452.34,304h3.44a4.14,4.14,0,0,0,2.53-.66,2.3,2.3,0,0,0,.87-2,2.23,2.23,0,0,0-.87-1.92,4.23,4.23,0,0,0-2.53-.64h-3.44V304Z"/><path class="cls-1" d="M482.49,304.83v2.3h-2.2v3.3h-2.7v-3.3h-7.3v-2l5-8.72h2.81l-4.66,8.4h4.18v-3.24h2.7v3.24h2.2Z"/><path class="cls-1" d="M487.41,308.15a1.3,1.3,0,0,1,.42,1,1.42,1.42,0,0,1-.1.54,4.93,4.93,0,0,1-.29.58l-1.37,2.42h-1.42l0.92-2.38a1.28,1.28,0,0,1-.65-1.16,1.32,1.32,0,0,1,.41-1,1.46,1.46,0,0,1,1-.39A1.5,1.5,0,0,1,487.41,308.15Z"/><path class="cls-1" d="M507.68,308.09v2.34H496.39v-1.94l5.75-5.44a8.69,8.69,0,0,0,1.33-1.5,2.41,2.41,0,0,0,.5-1.28,1.35,1.35,0,0,0-.65-1.19,3.26,3.26,0,0,0-1.81-.43,5.69,5.69,0,0,0-2.14.46,8.31,8.31,0,0,0-2.13,1.28l-1.16-2.06a11.57,11.57,0,0,1,2.84-1.49,8.89,8.89,0,0,1,3-.53,7.44,7.44,0,0,1,2.66.44,4.09,4.09,0,0,1,1.8,1.25,2.93,2.93,0,0,1,.64,1.87,3.92,3.92,0,0,1-.76,2.16,15.4,15.4,0,0,1-2.13,2.46l-3.88,3.6h7.43Z"/><path class="cls-1" d="M521.73,298.15a9,9,0,0,1,0,10.54,7.33,7.33,0,0,1-9.72,0,9,9,0,0,1,0-10.54A7.33,7.33,0,0,1,521.73,298.15Zm-7.54,1.49a8.65,8.65,0,0,0,0,7.57,3.55,3.55,0,0,0,5.36,0,8.66,8.66,0,0,0,0-7.57A3.57,3.57,0,0,0,514.19,299.64Z"/><path class="cls-1" d="M525.3,296.43h6.12v14h-2.92V298.79h-3.2v-2.36Z"/><path class="cls-1" d="M545,297.3a3.14,3.14,0,0,1,1.38,2.69,2.89,2.89,0,0,1-.57,1.74,3.75,3.75,0,0,1-1.57,1.22,4.6,4.6,0,0,1,2.13,1.4,3.31,3.31,0,0,1,.77,2.16,3.37,3.37,0,0,1-.72,2.14,4.48,4.48,0,0,1-2.06,1.41,10.21,10.21,0,0,1-6.25,0,4.56,4.56,0,0,1-2.06-1.39,3.43,3.43,0,0,1,.09-4.31,4.77,4.77,0,0,1,2.22-1.41,4.15,4.15,0,0,1-1.67-1.28,2.9,2.9,0,0,1-.6-1.78,3,3,0,0,1,1.38-2.61A7.7,7.7,0,0,1,545,297.3Zm-6.09,7.37a1.8,1.8,0,0,0-.83,1.58,1.87,1.87,0,0,0,.83,1.62,4,4,0,0,0,2.33.58,4.09,4.09,0,0,0,2.32-.57,1.84,1.84,0,0,0,.84-1.61,1.82,1.82,0,0,0-.84-1.59A5.07,5.07,0,0,0,538.88,304.67Zm0.36-5.94a1.74,1.74,0,0,0,0,2.8,3.37,3.37,0,0,0,2,.5,3.32,3.32,0,0,0,2-.5,1.75,1.75,0,0,0,0-2.8,3.32,3.32,0,0,0-2-.5A3.38,3.38,0,0,0,539.24,298.73Z"/><rect class="cls-3" x="396.39" y="72.87" width="40.46" height="140.7"/><path d="M502.29,128v3.06c0,24.9,0,49.79.05,74.69,0,2.14-.59,2.62-2.65,2.61-13.72-.08-27.45,0-41.17,0h-2.65v-80.3h-2.6c-12.28,0-30.34,0-42.62,0-1.8,0-2.36-.44-2.35-2.29,0.08-11.38,0-22.76,0-34.14V89.46c0.89,0,1.55-.1,2.22-0.1l132,0.18c2.89,0,2.9,0,2.9,3,0,10.9-.05,21.79,0,32.69,0,2.06-.52,2.72-2.64,2.71-12.07-.05-25.79,0-37.86.09h-2.71Z"/><circle cx="307.21" cy="304.31" r="7.12"/><circle class="cls-4" cx="307.21" cy="304.31" r="5.04"/></svg>