<svg id="Layer_1" data-name="Layer 1" xmlns="http://www.w3.org/2000/svg" width="400" height="400" viewBox="0 0 400 400"><defs><style>.cls-1{fill:#231f20;}</style></defs><title>type</title><path class="cls-1" d="M95.72,96.27h79.67v21H122.08v18.87H170.2v20.89l-48.12.14v19h54.75v21H95.72v-101Z"/><path class="cls-1" d="M280.67,93.27h30.61V219.51H282.47L225.2,144.05v75.46H194.41V93.27h29l57.45,76Z"/><path class="cls-1" d="M154.64,315.09l-14.7-27.95H120.36v27.95H94v-101h45.38q20,0,31,9.29t11,26.15q0,11.38-4.61,19.67a31.87,31.87,0,0,1-13.4,12.89l21,33H154.64Zm-34.29-49h19.16q8.06,0,12.46-4t4.39-11.67q0-7.35-4.39-11.31t-12.46-4H120.36v31Z"/><path class="cls-1" d="M291.55,237.92h23L289,313.66H265.83l-12.75-48.52L239.9,313.66h-23l-25.39-75.74h24l13.61,52.62,13.51-52.62h21.93l13.62,52.51Z"/><path class="cls-1" d="M96.92,59.75h13.94v3.68h-9.33v3.3H110v3.65l-8.42,0v3.33h9.58v3.68H96.92V59.75Z"/><path class="cls-1" d="M126.92,77.43l-1.21-3.13h-7.64l-1.24,3.13H112.1l7.59-17.67h4.74l7.41,17.67h-4.92Zm-7.46-6.66h4.89l-2.42-6.3Z"/><path class="cls-1" d="M142.52,63.71a8.91,8.91,0,0,0-2.69-.53,2.49,2.49,0,0,0-1.35.31,1,1,0,0,0-.49.92,1.27,1.27,0,0,0,.43,1,3.3,3.3,0,0,0,1.06.63q0.63,0.24,1.87.62a24.55,24.55,0,0,1,3,1.06,5.33,5.33,0,0,1,2.05,1.63,4.51,4.51,0,0,1,.86,2.86,4.89,4.89,0,0,1-.93,3,5.65,5.65,0,0,1-2.56,1.88,9.94,9.94,0,0,1-3.62.63,13.06,13.06,0,0,1-4.38-.77A12,12,0,0,1,132,74.83l1.79-3.61A11.1,11.1,0,0,0,137,73.17a8.63,8.63,0,0,0,3.24.76,3,3,0,0,0,1.63-.38,1.23,1.23,0,0,0,.59-1.11,1.31,1.31,0,0,0-.44-1,3.25,3.25,0,0,0-1.11-.64q-0.67-.24-1.88-0.57a23.11,23.11,0,0,1-3-1,5.29,5.29,0,0,1-2-1.56,4.3,4.3,0,0,1-.84-2.79A4.86,4.86,0,0,1,134,62a5.52,5.52,0,0,1,2.47-1.9,9.61,9.61,0,0,1,3.72-.67,13.52,13.52,0,0,1,3.78.54,12.46,12.46,0,0,1,3.28,1.45l-1.74,3.68A15.56,15.56,0,0,0,142.52,63.71Z"/><path class="cls-1" d="M148.1,59.75h15.15v3.81H158V77.43h-4.61V63.56H148.1V59.75Z"/><path class="cls-1" d="M182.79,59.75h4.29V77.43h-4l-8-10.56V77.43h-4.31V59.75h4.06l8,10.64Z"/><path class="cls-1" d="M203.52,77.43l-1.21-3.13h-7.64l-1.23,3.13h-4.74l7.59-17.67H201l7.41,17.67h-4.92Zm-7.46-6.66h4.89l-2.42-6.3Z"/><path class="cls-1" d="M219.11,63.71a8.91,8.91,0,0,0-2.69-.53,2.49,2.49,0,0,0-1.35.31,1,1,0,0,0-.49.92,1.26,1.26,0,0,0,.43,1,3.28,3.28,0,0,0,1.06.63q0.63,0.24,1.87.62a24.61,24.61,0,0,1,3,1.06A5.31,5.31,0,0,1,223,69.32a4.51,4.51,0,0,1,.86,2.86,4.88,4.88,0,0,1-.93,3,5.63,5.63,0,0,1-2.56,1.88,9.93,9.93,0,0,1-3.62.63,13.05,13.05,0,0,1-4.37-.77,11.93,11.93,0,0,1-3.77-2.11l1.79-3.61a11.14,11.14,0,0,0,3.17,1.94,8.61,8.61,0,0,0,3.24.76,3,3,0,0,0,1.63-.38,1.23,1.23,0,0,0,.59-1.11,1.31,1.31,0,0,0-.44-1,3.27,3.27,0,0,0-1.11-.64q-0.67-.24-1.88-0.57a23.11,23.11,0,0,1-3-1,5.28,5.28,0,0,1-2-1.56,4.29,4.29,0,0,1-.85-2.79,4.86,4.86,0,0,1,.87-2.87,5.54,5.54,0,0,1,2.47-1.9,9.61,9.61,0,0,1,3.72-.67,13.53,13.53,0,0,1,3.78.54,12.51,12.51,0,0,1,3.28,1.45l-1.74,3.68A15.56,15.56,0,0,0,219.11,63.71Z"/><path class="cls-1" d="M226.23,59.75h4.61V67H238V59.75h4.61V77.43H238V70.65h-7.13v6.78h-4.61V59.75Z"/><path class="cls-1" d="M244.26,59.75h5l4.41,12.78,4.44-12.78h4.74l-6.91,17.67h-4.79Z"/><path class="cls-1" d="M264.48,59.75h4.61V77.43h-4.61V59.75Z"/><path class="cls-1" d="M272.52,59.75h4.61V73.5h7.49v3.93h-12.1V59.75Z"/><path class="cls-1" d="M286.72,59.75h4.61V73.5h7.49v3.93h-12.1V59.75Z"/><path class="cls-1" d="M300.91,59.75h13.94v3.68h-9.33v3.3h8.42v3.65l-8.42,0v3.33h9.58v3.68H300.91V59.75Z"/><path class="cls-1" d="M102,345.94l-2.2-4.19H96.85v4.19h-4V330.8H99.7a7,7,0,0,1,4.66,1.39,4.85,4.85,0,0,1,1.65,3.92,6,6,0,0,1-.69,2.95,4.78,4.78,0,0,1-2,1.93l3.16,4.95H102Zm-5.14-7.35h2.87a2.67,2.67,0,0,0,1.87-.6,2.25,2.25,0,0,0,.66-1.75,2.17,2.17,0,0,0-.66-1.7,2.7,2.7,0,0,0-1.87-.59H96.85v4.65Z"/><path class="cls-1" d="M108.54,330.8h12V334h-8v2.83h7.22v3.13l-7.22,0v2.85h8.21v3.16H108.54V330.8Z"/><path class="cls-1" d="M131,334.19a7.61,7.61,0,0,0-2.3-.45,2.14,2.14,0,0,0-1.16.27,0.88,0.88,0,0,0-.42.79,1.08,1.08,0,0,0,.37.83,2.78,2.78,0,0,0,.91.54q0.54,0.21,1.6.53a20.77,20.77,0,0,1,2.6.91,4.57,4.57,0,0,1,1.76,1.39,3.88,3.88,0,0,1,.74,2.45,4.2,4.2,0,0,1-.8,2.58,4.86,4.86,0,0,1-2.19,1.61,8.52,8.52,0,0,1-3.1.54,11.21,11.21,0,0,1-3.75-.66,10.21,10.21,0,0,1-3.23-1.8l1.54-3.09a9.51,9.51,0,0,0,2.71,1.66,7.4,7.4,0,0,0,2.78.65,2.58,2.58,0,0,0,1.39-.32,1.06,1.06,0,0,0,.51-1,1.13,1.13,0,0,0-.38-0.87,2.8,2.8,0,0,0-.95-0.55Q129,340,128,339.76a19.86,19.86,0,0,1-2.57-.88,4.55,4.55,0,0,1-1.74-1.34,3.68,3.68,0,0,1-.72-2.39,4.17,4.17,0,0,1,.75-2.46,4.75,4.75,0,0,1,2.12-1.63,8.23,8.23,0,0,1,3.19-.57,11.57,11.57,0,0,1,3.24.46,10.72,10.72,0,0,1,2.81,1.24l-1.49,3.16A13.29,13.29,0,0,0,131,334.19Z"/><path class="cls-1" d="M135.77,330.8h13v3.26h-4.54v11.89h-4V334.06h-4.5V330.8Z"/><path class="cls-1" d="M159.86,345.94l-1-2.68h-6.55l-1.06,2.68h-4.06l6.5-15.15h4.06l6.35,15.15h-4.21Zm-6.4-5.71h4.19l-2.08-5.4Z"/><path class="cls-1" d="M169.54,342a2.86,2.86,0,0,0,2.14.87,2.68,2.68,0,0,0,2.06-.85,3.25,3.25,0,0,0,.79-2.3v-8.9h4v8.9a6.91,6.91,0,0,1-.83,3.45,5.63,5.63,0,0,1-2.38,2.28,7.78,7.78,0,0,1-3.62.8,7.91,7.91,0,0,1-3.64-.8,5.73,5.73,0,0,1-2.42-2.28,6.77,6.77,0,0,1-.85-3.45v-8.9h4v8.9A3.14,3.14,0,0,0,169.54,342Z"/><path class="cls-1" d="M190.29,345.94l-2.21-4.19h-2.94v4.19h-4V330.8H188a7,7,0,0,1,4.66,1.39,4.84,4.84,0,0,1,1.65,3.92,6,6,0,0,1-.69,2.95,4.78,4.78,0,0,1-2,1.93l3.16,4.95h-4.47Zm-5.14-7.35H188a2.67,2.67,0,0,0,1.87-.6,2.25,2.25,0,0,0,.66-1.75,2.17,2.17,0,0,0-.66-1.7A2.7,2.7,0,0,0,188,334h-2.87v4.65Z"/><path class="cls-1" d="M208,345.94l-1-2.68h-6.55l-1.06,2.68h-4.06l6.5-15.15h4.06l6.35,15.15H208Zm-6.4-5.71h4.19l-2.08-5.4Z"/><path class="cls-1" d="M223.89,330.8h3.67v15.15h-3.46l-6.87-9.06v9.06h-3.7V330.8H217l6.89,9.12Z"/><path class="cls-1" d="M229.21,330.8h13v3.26h-4.54v11.89h-4V334.06h-4.5V330.8Z"/><path class="cls-1" d="M267.16,330.8h4.06l-5.12,15.15H262l-2.87-10.31-2.92,10.31h-4.06l-5.1-15.15h4.26l3,11.07,3-11.07h3.87l3,11.07Z"/><path class="cls-1" d="M272.65,330.8h12V334h-8v2.83h7.22v3.13l-7.22,0v2.85h8.21v3.16H272.65V330.8Z"/><path class="cls-1" d="M287.23,330.8h12V334h-8v2.83h7.22v3.13l-7.22,0v2.85h8.21v3.16H287.23V330.8Z"/><path class="cls-1" d="M316.39,345.94h-4.73l-4-5.88-1.9,2.12v3.76h-4V330.8h4v6.57l5.68-6.57H316L310.42,337Z"/></svg>