<svg id="Layer_1" data-name="Layer 1" xmlns="http://www.w3.org/2000/svg" width="594.28" height="400" viewBox="0 0 594.28 400"><defs><style>.cls-1{fill:#cdd353;}.cls-2{fill:#fff;}.cls-3,.cls-4{fill:none;stroke-miterlimit:10;stroke-width:2px;}.cls-3{stroke:#000;}.cls-4{stroke:#cbd31e;}.cls-5{fill:#b1b732;}</style></defs><title>type</title><path d="M50.61,88.46H162.3v36.87h-65v7.93h62.46v29.36H97.3v7.64h65v37H50.61V88.46Z"/><path class="cls-1" d="M309.43,165.63h2.43c11.73,0,23.46,0,35.18,0,1.47,0,2.16.26,2.43,1.9a6.08,6.08,0,0,0,4.4,4.84,40.8,40.8,0,0,0,9.47,2.08,110.28,110.28,0,0,0,14-.29,18.12,18.12,0,0,0,5.37-1.64,3.62,3.62,0,0,0,2.4-3.67,3.53,3.53,0,0,0-2.59-3.54,64.9,64.9,0,0,0-8.33-1.9c-10.54-1.67-21.12-3.12-31.65-4.86a50,50,0,0,1-16.4-5.54c-8.48-4.73-12.8-12.16-13.84-21.63-0.73-6.57-.26-13,2.45-19.15,3.78-8.54,10.6-13.84,18.94-17.43,7.5-3.23,15.43-4.66,23.52-5.31a150.11,150.11,0,0,1,29.07.4c7.47,0.85,14.78,2.38,21.54,5.88,10.32,5.34,15.83,14,17.37,25.34,0.47,3.46.5,7,.74,10.72-1,.06-1.71.13-2.4,0.13-11.66,0-23.33,0-35,0-1.3,0-2.09-.19-2.57-1.66-1-3.08-3.47-4.87-6.45-5.78a39.37,39.37,0,0,0-20.27-.6,8.16,8.16,0,0,0-1.83.67c-1.79.89-3.13,2.08-3,4.34a4.13,4.13,0,0,0,3.26,3.92,39.55,39.55,0,0,0,5.52,1.17c12.22,1.87,24.51,3.42,36.66,5.68a58.75,58.75,0,0,1,14.84,5.24c7.52,3.69,11.94,10.09,13.48,18.35A40.79,40.79,0,0,1,427,183.94c-3.26,9.78-10.51,15.57-19.7,19.31-7.81,3.18-16,4.47-24.38,5.06a171.71,171.71,0,0,1-34.91-.79c-7.6-1-15-2.8-21.75-6.55-10.07-5.56-15.17-14.31-16.35-25.54C309.61,172.29,309.6,169.11,309.43,165.63Z"/><path d="M315.33,207.38h-2.14c-14.62,0-29.24,0-43.86,0-1.49,0-2.18-.39-2.56-1.89-0.81-3.2-1.89-6.33-2.75-9.52a1.76,1.76,0,0,0-2-1.51q-21.41,0-42.83,0a1.67,1.67,0,0,0-1.88,1.41c-1,3.31-2,6.58-3,9.89a1.8,1.8,0,0,1-2,1.62q-22.76-.07-45.52,0a7.4,7.4,0,0,1-.91-0.16c0.21-.72.37-1.41,0.6-2.08q20.32-57.27,40.61-114.55a2.82,2.82,0,0,1,3.2-2.27q30.31,0.11,60.62,0c1.6,0,2.4.37,3,2q20.22,57.2,40.55,114.35C314.73,205.44,315,206.22,315.33,207.38ZM253,160.21c-0.23-.94-0.37-1.67-0.58-2.38q-3.07-10.18-6.17-20.36c-1.74-5.71-1.74-5.66-7.64-5.69a2.1,2.1,0,0,0-2.42,1.81c-2.44,8.26-5,16.48-7.47,24.72-0.17.57-.27,1.16-0.43,1.89H253Z"/><path d="M60.48,311.43l-1.83-3.64h-1.9v3.64H51.7v-14h7.39a7.74,7.74,0,0,1,4.81,1.31,4.41,4.41,0,0,1,1.7,3.71,5.42,5.42,0,0,1-.62,2.65,4.53,4.53,0,0,1-1.8,1.79l3,4.56H60.48Zm-3.73-7.16h2.33a1.56,1.56,0,0,0,1.72-1.7,1.61,1.61,0,0,0-.45-1.21,1.77,1.77,0,0,0-1.27-.43H56.75v3.34Z"/><path d="M68.23,297.41H81.15v3.52H73.29v1.72h7.15v3.52H73.29v1.74h8.06v3.52H68.23v-14Z"/><path d="M92.68,301.11a8.4,8.4,0,0,0-2.48-.5q-0.94,0-.94.62a0.82,0.82,0,0,0,.6.74,12.82,12.82,0,0,0,1.91.58,24.34,24.34,0,0,1,2.71.84,4.84,4.84,0,0,1,1.88,1.33,3.47,3.47,0,0,1,.81,2.39,3.84,3.84,0,0,1-.86,2.55A5.08,5.08,0,0,1,94,311.19a10,10,0,0,1-3.25.5,14.34,14.34,0,0,1-4.08-.61,12.14,12.14,0,0,1-3.56-1.67l1.87-3.5a10.49,10.49,0,0,0,2.9,1.57,8.69,8.69,0,0,0,2.92.65,1.78,1.78,0,0,0,.89-0.19,0.63,0.63,0,0,0,.33-0.59,0.84,0.84,0,0,0-.62-0.75,11.86,11.86,0,0,0-1.95-.57,21.74,21.74,0,0,1-2.69-.79A4.78,4.78,0,0,1,84.88,304a3.28,3.28,0,0,1-.78-2.3,3.91,3.91,0,0,1,.81-2.45,5,5,0,0,1,2.29-1.61,9.71,9.71,0,0,1,3.44-.56,14.15,14.15,0,0,1,3.56.46,12.2,12.2,0,0,1,3.08,1.22l-1.83,3.54A17.64,17.64,0,0,0,92.68,301.11Z"/><path d="M98.23,297.41H112v3.66h-4.36v10.36h-5.05V301.07H98.23v-3.66Z"/><path d="M123.33,311.43l-0.76-2h-5.73l-0.78,2h-5.19l6.45-14h5.18l6.21,14h-5.38Zm-5.19-5.3h3.18l-1.57-4.1Z"/><path d="M135.38,307.25a2.16,2.16,0,0,0,1.57.64,1.94,1.94,0,0,0,1.48-.63,2.32,2.32,0,0,0,.59-1.65v-8.2h5.05v8.2a5.9,5.9,0,0,1-.88,3.23,5.8,5.8,0,0,1-2.5,2.15,8.75,8.75,0,0,1-3.77.76,9,9,0,0,1-3.8-.76,5.9,5.9,0,0,1-2.55-2.15,5.79,5.79,0,0,1-.9-3.23v-8.2h5.05v8.2A2.19,2.19,0,0,0,135.38,307.25Z"/><path d="M155.55,311.43l-1.83-3.64h-1.9v3.64h-5.05v-14h7.39a7.74,7.74,0,0,1,4.81,1.31,4.41,4.41,0,0,1,1.7,3.71,5.42,5.42,0,0,1-.62,2.65,4.53,4.53,0,0,1-1.8,1.79l3,4.56h-5.71Zm-3.73-7.16h2.33a1.56,1.56,0,0,0,1.72-1.7,1.61,1.61,0,0,0-.45-1.21,1.77,1.77,0,0,0-1.27-.43h-2.33v3.34Z"/><path d="M174.46,311.43l-0.76-2H168l-0.78,2H162l6.45-14h5.18l6.21,14h-5.38Zm-5.19-5.3h3.18l-1.57-4.1Z"/><path d="M191.72,297.41h4.58v14h-4.23l-6-7.16v7.16h-4.6v-14h4.23l6,7.2v-7.2Z"/><path d="M198.24,297.41H212v3.66h-4.36v10.36h-5.05V301.07h-4.33v-3.66Z"/><path d="M238,297.41h5.16l-5.16,14h-5.19l-2.29-8.38-2.35,8.38h-5.19l-5.12-14h5.4l2.46,9.2,2.44-9.2H233l2.48,9.2Z"/><path d="M244.84,297.41h12.92v3.52h-7.87v1.72H257v3.52h-7.15v1.74H258v3.52H244.84v-14Z"/><path d="M260.61,297.41h12.92v3.52h-7.87v1.72h7.15v3.52h-7.15v1.74h8.06v3.52H260.61v-14Z"/><path d="M292.13,311.43h-6l-3.22-4.88L281.44,308v3.4h-5.05v-14h5.05v5.12l4.55-5.12h5.82l-5.47,5.6Z"/><rect class="cls-2" x="396.39" y="72.87" width="40.46" height="140.7"/><path d="M502.29,128v3.06c0,24.9,0,49.79.05,74.69,0,2.14-.59,2.62-2.65,2.61-13.72-.08-27.45,0-41.17,0h-2.65v-80.3h-2.6c-12.28,0-30.34,0-42.62,0-1.8,0-2.36-.44-2.35-2.29,0.08-11.38,0-22.76,0-34.14V89.46c0.89,0,1.55-.1,2.22-0.1l132,0.18c2.89,0,2.9,0,2.9,3,0,10.9-.05,21.79,0,32.69,0,2.06-.52,2.72-2.64,2.71-12.07-.05-25.79,0-37.86.09h-2.71Z"/><line class="cls-3" x1="300.16" y1="303.95" x2="314.33" y2="303.95"/><line class="cls-4" x1="307.16" y1="303.95" x2="314.33" y2="303.95"/><line class="cls-3" x1="307.24" y1="311.04" x2="307.24" y2="296.87"/><path class="cls-2" d="M52.5,225.55v52.76h20V254.78c1.56-.64,2.13.12,2.69,1.13,3.89,7,7.85,14,11.73,21a2.52,2.52,0,0,0,2.56,1.54c6.55-.07,13.1,0,19.65,0,0.53,0,1.06-.06,1.62-0.1V225.68h-20v23.48c-1.5.69-2-.11-2.58-1.12q-5.63-10.52-11.35-21A2.78,2.78,0,0,0,75,225.62C67.58,225.52,60.12,225.55,52.5,225.55Zm221.2,35.22v17.49h20.6V225.65H273.64v17.51H257V225.65H236.45v52.62h20.66V260.77H273.7Zm-95.83-.92c-1.11,9,3.09,15.29,10.4,17.9,6.71,2.39,13.67,2.54,20.67,2.33,5.16-.16,10.26-0.72,15.08-2.76a16,16,0,0,0,8.14-21.94,12.82,12.82,0,0,0-3.07-3.81c-3.33-2.87-7.5-3.76-11.69-4.43-5.32-.85-10.66-1.58-16-2.38-1.32-.2-2.68-0.61-2.7-2.23s1.3-2.22,2.61-2.32a49.75,49.75,0,0,1,7.29-.1,5.56,5.56,0,0,1,5,3.21,1.93,1.93,0,0,0,1.48.64c3.24,0.06,6.49,0,9.74,0h7.07c1-9.69-3.72-16.12-11.62-18.38-8.15-2.33-16.44-2.29-24.75-1a23.19,23.19,0,0,0-11.39,4.74c-4.79,4-6,9.19-5.16,15.06s4.45,9.2,9.85,10.92a30.41,30.41,0,0,0,4.26,1.09c5,0.82,10,1.56,15.06,2.34a9.36,9.36,0,0,1,2.86.6,3.74,3.74,0,0,1,2,2c0.1,0.53-1.11,1.33-1.76,2a1.37,1.37,0,0,1-.68.25,22.71,22.71,0,0,1-11.08-.31,6,6,0,0,1-3-2.42,1.82,1.82,0,0,0-1.8-1.08c-4.41,0-8.82,0-13.23,0h-3.6Zm314.66,18.31a3.86,3.86,0,0,0,.6.14q23.52-.12,47-0.22c1.37,0,1.61-.69,1.6-1.85,0-4-.08-8,0-11.94,0-1.56-.54-2-2-2-8.15,0-16.29-.08-24.44-0.1-1.37,0-2.46.08-2.47-1.93s1.07-2,2.55-2c7.78,0,15.56-.1,23.33-0.09,1.44,0,2-.45,1.9-1.9-0.09-2.51,0-5,0-7.53,0-2.89,0-2.89-2.86-2.9-7.59,0-15.19-.06-22.78-0.13a2.54,2.54,0,0,1-1.88-.62c-1-1.75,0-3.33,2.05-3.34,8.21-.05,16.41-0.13,24.62-0.12,1.49,0,2.05-.42,2-2-0.09-3.73,0-7.47,0-11.21,0-2.54,0-2.56-2.5-2.57l-44.83-.25c-0.59,0-1.19.05-1.89,0.09v52.45ZM158,278.3h21.11c-0.17-.6-0.28-1.07-0.44-1.52Q169.85,251.89,161,227a1.86,1.86,0,0,0-2.1-1.47c-8.51.05-17,.08-25.52,0-1.54,0-2.07.55-2.54,1.89q-8.66,24.57-17.43,49.1c-0.2.56-.35,1.13-0.58,1.91h16.73c4.47,0,4.52,0,5.8-4.25a1.77,1.77,0,0,1,2-1.52c4.34,0.06,8.69,0,13,0,1.83,0,4.12-.57,5.36.31s1.37,3.22,2,4.93C157.83,278,157.86,278,158,278.3Zm204.74-52.75c-6.63,0-13.05,0-19.47,0a2.11,2.11,0,0,0-2.42,1.78q-4.74,15-9.66,29.85a3,3,0,0,1-1.58,1.8c-1.4.38-1.39-1-1.67-1.87q-4.87-14.91-9.69-29.84a2,2,0,0,0-2.28-1.72c-3.49.11-7,0-10.47,0h-9.07c0.17,0.63.26,1,.4,1.44q8.86,25,17.7,50a1.88,1.88,0,0,0,2.11,1.47c8.33-.05,16.65-0.09,25,0,1.81,0,2.63-.46,3.25-2.23,5.68-16.22,11.47-32.41,17.22-48.61C362.32,227,362.49,226.36,362.75,225.55ZM487.91,278.3c0-5.23-.05-10.24,0-15.25,0-1.51-.52-1.84-1.91-1.83-7.47,0-14.94,0-22.41,0H461.3V225.66H440.79V278.3h47.11Zm-98.52,0h47.12V261.16h-2.13c-7.47,0-14.94,0-22.4,0-1.61,0-2.07-.41-2.05-2,0.08-10.47,0-20.93,0-31.4v-2.1H389.39v52.63Zm-24.54-52.63v52.63h20.43V225.64H364.85Z"/><path d="M52.5,225.55c7.62,0,15.08,0,22.54.06a2.78,2.78,0,0,1,1.76,1.44q5.74,10.46,11.35,21c0.54,1,1.08,1.81,2.58,1.12V225.68h20V278.3c-0.56,0-1.09.1-1.62,0.1-6.55,0-13.1,0-19.65,0a2.52,2.52,0,0,1-2.56-1.54c-3.88-7-7.83-14-11.73-21-0.56-1-1.13-1.77-2.69-1.13v23.53h-20V225.55Z"/><path d="M273.7,260.77H257.11v17.49H236.45V225.65H257v17.51h16.65V225.65H294.3v52.61H273.7V260.77Z"/><path d="M177.87,259.86h3.6c4.41,0,8.82,0,13.23,0a1.82,1.82,0,0,1,1.8,1.08,6,6,0,0,0,3,2.42,22.71,22.71,0,0,0,11.08.31,1.37,1.37,0,0,0,.68-0.25c0.66-.64,1.86-1.44,1.76-2a3.74,3.74,0,0,0-2-2,9.36,9.36,0,0,0-2.86-.6c-5-.78-10-1.52-15.06-2.34a30.41,30.41,0,0,1-4.26-1.09c-5.4-1.72-9-5.12-9.85-10.92s0.37-11.1,5.16-15.06a23.19,23.19,0,0,1,11.39-4.74c8.3-1.33,16.6-1.38,24.75,1,7.9,2.26,12.61,8.69,11.62,18.38h-7.07c-3.25,0-6.49,0-9.74,0a1.93,1.93,0,0,1-1.48-.64,5.56,5.56,0,0,0-5-3.21,49.75,49.75,0,0,0-7.29.1c-1.31.1-2.64,0.72-2.61,2.32s1.38,2,2.7,2.23c5.33,0.81,10.67,1.53,16,2.38,4.19,0.67,8.36,1.56,11.69,4.43a12.82,12.82,0,0,1,3.07,3.81A16,16,0,0,1,224,277.32c-4.82,2-9.92,2.61-15.08,2.76-7,.21-14,0.05-20.67-2.33C181,275.15,176.76,268.82,177.87,259.86Z"/><path d="M492.53,278.17V225.72c0.7,0,1.29-.09,1.89-0.09l44.83,0.25c2.5,0,2.5,0,2.5,2.57,0,3.74-.06,7.47,0,11.21,0,1.55-.53,2-2,2-8.21,0-16.41.06-24.62,0.12-2,0-3,1.59-2.05,3.34a2.54,2.54,0,0,0,1.88.62c7.59,0.08,15.19.1,22.78,0.13,2.86,0,2.86,0,2.86,2.9,0,2.51-.07,5,0,7.53,0.05,1.45-.46,1.9-1.9,1.9-7.78,0-15.56.08-23.33,0.09-1.48,0-2.56,0-2.55,2s1.09,1.92,2.47,1.93c8.15,0,16.29.11,24.44,0.1,1.48,0,2.06.41,2,2-0.09,4-.05,8,0,11.94,0,1.16-.23,1.84-1.6,1.85q-23.52.08-47,.22A3.86,3.86,0,0,1,492.53,278.17Z"/><path d="M158,278.3c-0.14-.28-0.18-0.33-0.2-0.39-0.62-1.7-.77-4.07-2-4.93s-3.53-.3-5.36-0.31c-4.35,0-8.69,0-13,0a1.77,1.77,0,0,0-2,1.52c-1.28,4.26-1.32,4.25-5.8,4.25H112.87c0.24-.78.38-1.35,0.58-1.91q8.73-24.55,17.43-49.1c0.47-1.34,1-1.9,2.54-1.89,8.51,0.09,17,.07,25.52,0A1.86,1.86,0,0,1,161,227q8.78,24.91,17.63,49.8c0.16,0.45.27,0.92,0.44,1.52H158Zm-6.45-20.88c-1.12-3.71-2.2-7.13-3.18-10.58-0.36-1.28-.75-2.08-2.4-2s-1.91.81-2.24,2c-0.53,1.94-1.17,3.85-1.76,5.78-0.47,1.55-.92,3.11-1.43,4.82h11Z"/><path d="M362.75,225.55c-0.25.81-.43,1.45-0.65,2.07-5.75,16.2-11.55,32.38-17.22,48.61-0.62,1.77-1.44,2.26-3.25,2.23-8.32-.11-16.65-0.07-25,0a1.88,1.88,0,0,1-2.11-1.47q-8.82-25-17.7-50c-0.14-.39-0.23-0.81-0.4-1.44h9.07c3.49,0,7,.07,10.47,0a2,2,0,0,1,2.28,1.72q4.79,14.94,9.69,29.84c0.28,0.86.27,2.26,1.67,1.87a3,3,0,0,0,1.58-1.8q4.91-14.9,9.66-29.85a2.11,2.11,0,0,1,2.42-1.78C349.69,225.6,356.12,225.55,362.75,225.55Z"/><path d="M487.91,278.3H440.79V225.66H461.3V261.2h2.32c7.47,0,14.94.06,22.41,0,1.39,0,1.94.33,1.91,1.83C487.85,268.06,487.91,273.07,487.91,278.3Z"/><path d="M389.39,278.27V225.64H410v2.1c0,10.47,0,20.93,0,31.4,0,1.63.44,2.06,2.05,2,7.47-.08,14.94,0,22.4,0h2.13v17.12H389.39Z"/><path d="M364.85,225.64h20.43v52.63H364.85V225.64Z"/><path class="cls-2" d="M151.56,257.42h-11c0.51-1.72,1-3.27,1.43-4.82,0.59-1.93,1.23-3.84,1.76-5.78,0.33-1.21.67-2,2.24-2s2,0.76,2.4,2C149.36,250.28,150.43,253.71,151.56,257.42Z"/><path class="cls-5" d="M322.58,297h11l0,2.62H326v3.44h6.88v2.64H326V311h-3.44V297Z"/><path class="cls-5" d="M336.28,297h11.61v2.62h-8.17v3h7.34v2.62h-7.34v3.1h8.41V311H336.28V297Z"/><path class="cls-5" d="M362.58,298a3,3,0,0,1,.75,4.51,3.57,3.57,0,0,1-1.93,1.13,3.93,3.93,0,0,1,2.33,1.21,3.37,3.37,0,0,1,.85,2.33A3.25,3.25,0,0,1,363,310a7.45,7.45,0,0,1-4.21,1h-7.25V297h7A7.3,7.3,0,0,1,362.58,298ZM360,302.25a1.35,1.35,0,0,0,.56-1.15A1.3,1.3,0,0,0,360,300a2.5,2.5,0,0,0-1.54-.38H355v3.06h3.4A2.54,2.54,0,0,0,360,302.25Zm0.38,5.74a1.41,1.41,0,0,0,.7-1.25,1.36,1.36,0,0,0-.7-1.2,3.47,3.47,0,0,0-1.92-.42H355v3.32h3.4A3.51,3.51,0,0,0,360.33,308Z"/><path class="cls-5" d="M384.28,308.38V311H372.82v-2.18l5.64-5.34a7.73,7.73,0,0,0,1.21-1.37,2.21,2.21,0,0,0,.45-1.17,1.17,1.17,0,0,0-.56-1,2.75,2.75,0,0,0-1.54-.37,5.49,5.49,0,0,0-2.09.46,9.22,9.22,0,0,0-2.16,1.28l-1.35-2.36a10.7,10.7,0,0,1,6.1-2.06,7.53,7.53,0,0,1,2.7.45,4.23,4.23,0,0,1,1.83,1.26,2.92,2.92,0,0,1,.65,1.89,4,4,0,0,1-.76,2.2,15,15,0,0,1-2.16,2.46l-3.51,3.24h7Z"/><path class="cls-5" d="M395.27,299.59a6.45,6.45,0,0,0-1.71-.23,3.59,3.59,0,0,0-2.88,1.11,4.39,4.39,0,0,0-.92,3.07,3.77,3.77,0,0,1,1.55-1.25,5.45,5.45,0,0,1,2.24-.43,5,5,0,0,1,3.56,1.23,4.28,4.28,0,0,1,1.32,3.29,4.64,4.64,0,0,1-.69,2.54,4.45,4.45,0,0,1-1.93,1.66,7.49,7.49,0,0,1-6.32-.25,5.45,5.45,0,0,1-2.2-2.38,8.28,8.28,0,0,1-.76-3.69,8.57,8.57,0,0,1,.84-3.89,6.13,6.13,0,0,1,2.38-2.58,6.9,6.9,0,0,1,3.58-.91,11.14,11.14,0,0,1,2.52.3,8.59,8.59,0,0,1,2.23.82l-1.31,2.24A5.73,5.73,0,0,0,395.27,299.59Zm-4.37,5.24a2.15,2.15,0,0,0-.05,3.12,2.7,2.7,0,0,0,1.93.63,2.8,2.8,0,0,0,1.86-.58,2,2,0,0,0,.69-1.64,2,2,0,0,0-.65-1.58,2.63,2.63,0,0,0-1.81-.58A2.87,2.87,0,0,0,390.9,304.83Z"/><path class="cls-5" d="M401.49,303.14h5.62v2h-5.62v-2Z"/><path class="cls-5" d="M411.77,297h3.83l4.75,8.6,4.71-8.6h3.81v14h-3.09v-9.46l-4.34,8h-2.22l-4.36-8V311h-3.09V297Z"/><path class="cls-5" d="M443.25,311l-1.2-2.72H435L433.8,311h-3.55l6.62-14h3.55l6.51,14h-3.68Zm-7.12-5.26h4.81l-2.4-5.44Z"/><path class="cls-5" d="M457.64,311l-2.42-4h-3.51v4h-3.44V297h6.62a7.38,7.38,0,0,1,4.62,1.27,4.29,4.29,0,0,1,1.63,3.59,5.06,5.06,0,0,1-.73,2.77,4.58,4.58,0,0,1-2.12,1.75l4.25,4.62h-4.9Zm-5.93-6.64h3.18a3.5,3.5,0,0,0,2.21-.61,2.14,2.14,0,0,0,.77-1.79,2.07,2.07,0,0,0-.77-1.75,3.59,3.59,0,0,0-2.21-.59h-3.18v4.74Z"/><path class="cls-5" d="M479.38,305.32v2.54h-2.09V311h-3.16v-3.16H467v-2.22l4.66-8.62H475l-4.38,8.3h3.55v-3.1h3.16v3.1h2.09Z"/><path class="cls-5" d="M484.55,308.46a1.44,1.44,0,0,1,.48,1.14,1.55,1.55,0,0,1-.11.59,5.58,5.58,0,0,1-.33.65L483,313.38h-1.63l1-2.52a1.37,1.37,0,0,1-.72-1.26,1.45,1.45,0,0,1,.48-1.12A1.82,1.82,0,0,1,484.55,308.46Z"/><path class="cls-5" d="M504.74,308.38V311H493.28v-2.18l5.64-5.34a7.73,7.73,0,0,0,1.21-1.37,2.21,2.21,0,0,0,.45-1.17,1.17,1.17,0,0,0-.56-1,2.75,2.75,0,0,0-1.54-.37,5.49,5.49,0,0,0-2.09.46,9.22,9.22,0,0,0-2.16,1.28l-1.35-2.36a10.7,10.7,0,0,1,6.1-2.06,7.53,7.53,0,0,1,2.7.45,4.23,4.23,0,0,1,1.83,1.26,2.92,2.92,0,0,1,.65,1.89,4,4,0,0,1-.76,2.2,15,15,0,0,1-2.16,2.46l-3.51,3.24h7Z"/><path class="cls-5" d="M517.84,298.74a8.95,8.95,0,0,1,0,10.55,6.39,6.39,0,0,1-4.92,1.85,6.46,6.46,0,0,1-5-1.85,8.9,8.9,0,0,1,0-10.55,6.48,6.48,0,0,1,5-1.84A6.41,6.41,0,0,1,517.84,298.74Zm-7.32,1.7a8.76,8.76,0,0,0,0,7.15,2.68,2.68,0,0,0,2.4,1.13,2.64,2.64,0,0,0,2.35-1.13,8.76,8.76,0,0,0,0-7.15,2.65,2.65,0,0,0-2.35-1.12A2.69,2.69,0,0,0,510.52,300.44Z"/><path class="cls-5" d="M521.15,297h6.51v14h-3.44V299.7h-3.07V297Z"/><path class="cls-5" d="M541.17,297.89a3.18,3.18,0,0,1,1.42,2.73,2.9,2.9,0,0,1-.53,1.69,3.79,3.79,0,0,1-1.45,1.23,4.39,4.39,0,0,1,2,1.4,3.49,3.49,0,0,1,0,4.3,4.7,4.7,0,0,1-2.1,1.42,9.24,9.24,0,0,1-3.19.5,9.36,9.36,0,0,1-3.17-.49,4.67,4.67,0,0,1-2.1-1.4,3.27,3.27,0,0,1-.74-2.13,3.37,3.37,0,0,1,.78-2.17,4.56,4.56,0,0,1,2.14-1.43,4.21,4.21,0,0,1-1.58-1.3,2.91,2.91,0,0,1-.58-1.74,3.05,3.05,0,0,1,1.42-2.64A7.89,7.89,0,0,1,541.17,297.89Zm-5.89,7.47a1.64,1.64,0,0,0-.73,1.44,1.69,1.69,0,0,0,.73,1.46,3.51,3.51,0,0,0,2.06.52,3.62,3.62,0,0,0,2.07-.51,1.79,1.79,0,0,0,0-2.9A4.47,4.47,0,0,0,535.28,305.36Zm0.31-5.85a1.48,1.48,0,0,0-.62,1.27,1.46,1.46,0,0,0,.62,1.25,3,3,0,0,0,1.75.45,3,3,0,0,0,1.75-.44,1.45,1.45,0,0,0,.62-1.26,1.48,1.48,0,0,0-.62-1.27A3.64,3.64,0,0,0,535.58,299.51Z"/></svg>