<?xml version="1.0" encoding="utf-8"?>
<!-- Generator: Adobe Illustrator 22.1.0, SVG Export Plug-In . SVG Version: 6.00 Build 0)  -->
<svg version="1.1" id="Layer_1" xmlns="http://www.w3.org/2000/svg" xmlns:xlink="http://www.w3.org/1999/xlink" x="0px" y="0px"
	 width="594.3px" height="400px" viewBox="0 0 594.3 400" style="enable-background:new 0 0 594.3 400;" xml:space="preserve">
<style type="text/css">
	.st0{fill:#CDD353;}
	.st1{fill:#FFFFFF;}
	.st2{fill:none;stroke:#000000;stroke-width:2;stroke-miterlimit:10;}
	.st3{fill:none;stroke:#CBD31E;stroke-width:2;stroke-miterlimit:10;}
	.st4{fill:#231F20;}
</style>
<title>type</title>
<path d="M54.6,89.7c37.3,0,74.4,0,111.7,0c0,12.3,0,24.4,0,36.9c-21.7,0-43.3,0-65,0c0,2.7,0,5.2,0,7.9c20.8,0,41.6,0,62.5,0
	c0,9.9,0,19.5,0,29.4c-20.9,0-41.6,0-62.4,0c0,2.6,0,5,0,7.6c21.6,0,43.2,0,65,0c0,12.5,0,24.7,0,37c-37.3,0-74.4,0-111.7,0
	C54.6,168.9,54.6,129.4,54.6,89.7z"/>
<path d="M319.3,208.6c-0.9,0-1.5,0-2.1,0c-14.6,0-29.2,0-43.9,0c-1.5,0-2.2-0.4-2.6-1.9c-0.8-3.2-1.9-6.3-2.8-9.5
	c-0.3-1.1-0.9-1.5-2-1.5c-14.3,0-28.6,0-42.8,0c-1.1,0-1.6,0.4-1.9,1.4c-1,3.3-2,6.6-3,9.9c-0.3,1-0.7,1.6-2,1.6
	c-15.2,0-30.3,0-45.5,0c-0.2,0-0.4-0.1-0.9-0.2c0.2-0.7,0.4-1.4,0.6-2.1c13.5-38.2,27.1-76.4,40.6-114.6c0.6-1.7,1.4-2.3,3.2-2.3
	c20.2,0.1,40.4,0.1,60.6,0c1.6,0,2.4,0.4,3,2c13.5,38.1,27,76.2,40.6,114.4C318.7,206.7,318.9,207.5,319.3,208.6z M256.9,161.5
	c-0.2-0.9-0.4-1.7-0.6-2.4c-2-6.8-4.1-13.6-6.2-20.4c-1.7-5.7-1.7-5.7-7.6-5.7c-1.4,0-2,0.4-2.4,1.8c-2.4,8.3-5,16.5-7.5,24.7
	c-0.2,0.6-0.3,1.2-0.4,1.9C240.5,161.5,248.5,161.5,256.9,161.5z"/>
<path class="st0" d="M400.3,140.3c-11-1.9-22.1-3.4-33.2-5.1c-1.9-0.3-3.7-0.6-5.5-1.2c-1.9-0.6-3.1-1.8-3.3-3.9
	c-0.1-2.3,1.2-3.5,3-4.3c0.6-0.3,1.2-0.5,1.8-0.7c6.8-1.5,13.6-1.4,20.3,0.6c3,0.9,5.4,2.7,6.5,5.8c0.5,1.5,1.3,1.7,2.6,1.7
	c2.6,0,5.2,0,7.8,0V92.8c-3.3-0.8-6.7-1.3-10.1-1.7c-9.7-1.1-19.4-1.2-29.1-0.4c-8.1,0.6-16,2.1-23.5,5.3
	c-8.3,3.6-15.2,8.9-18.9,17.4c-2.7,6.1-3.2,12.6-2.4,19.2c1,9.5,5.4,16.9,13.8,21.6c5.1,2.9,10.7,4.6,16.4,5.5
	c10.5,1.7,21.1,3.2,31.7,4.9c2.8,0.4,5.6,1.1,8.3,1.9c1.6,0.5,2.5,1.7,2.6,3.5c0,1.8-0.9,3-2.4,3.7c-1.7,0.7-3.6,1.5-5.4,1.6
	c-4.7,0.3-9.4,0.6-14,0.3c-3.2-0.2-6.4-1.1-9.5-2.1c-2.3-0.7-4-2.4-4.4-4.8c-0.3-1.6-1-1.9-2.4-1.9c-11.7,0.1-23.5,0-35.2,0
	c-0.6,0-1.3,0-2.4,0c0.2,3.5,0.2,6.7,0.5,9.8c1.2,11.2,6.3,20,16.3,25.5c6.8,3.7,14.2,5.5,21.7,6.5c11.6,1.5,23.3,1.6,34.9,0.8
	c4.5-0.3,9-0.9,13.4-1.8V140.3z"/>
<path d="M506.2,129.3c0,1.3,0,2.2,0,3.1c0,24.9,0,49.8,0.1,74.7c0,2.1-0.6,2.6-2.7,2.6c-13.7-0.1-27.4,0-41.2,0c-0.8,0-1.6,0-2.6,0
	c0-26.8,0-53.4,0-80.3c-1,0-1.8,0-2.6,0c-12.3,0-30.3,0-42.6,0c-1.8,0-2.4-0.4-2.3-2.3c0.1-11.4,0-22.8,0-34.1c0-0.7,0-1.4,0-2.2
	c0.9,0,1.6-0.1,2.2-0.1c41.5,0.1,90.5,0.1,132,0.2c2.9,0,2.9,0,2.9,3c0,10.9-0.1,21.8,0,32.7c0,2.1-0.5,2.7-2.6,2.7
	c-12.1-0.1-25.8,0-37.9,0.1C508.1,129.3,507.3,129.3,506.2,129.3z"/>
<g>
	<g>
		<path class="st1" d="M56.4,226.8c0,17.7,0,35.2,0,52.8c6.7,0,13.2,0,20,0c0-7.9,0-15.8,0-23.5c1.6-0.6,2.1,0.1,2.7,1.1
			c3.9,7,7.8,14,11.7,21c0.6,1.1,1.3,1.6,2.6,1.5c6.5-0.1,13.1,0,19.6,0c0.5,0,1.1-0.1,1.6-0.1c0-17.6,0-35.1,0-52.6
			c-6.7,0-13.3,0-20,0c0,7.9,0,15.8,0,23.5c-1.5,0.7-2-0.1-2.6-1.1c-3.8-7-7.5-14-11.4-21c-0.3-0.6-1.2-1.4-1.8-1.4
			C71.5,226.8,64.1,226.8,56.4,226.8z M277.6,262c0,6,0,11.7,0,17.5c7,0,13.8,0,20.6,0c0-17.6,0-35.1,0-52.6c-6.9,0-13.7,0-20.7,0
			c0,5.9,0,11.7,0,17.5c-5.6,0-11,0-16.7,0c0-5.9,0-11.7,0-17.5c-7,0-13.7,0-20.5,0c0,17.6,0,35.1,0,52.6c6.9,0,13.7,0,20.7,0
			c0-5.9,0-11.7,0-17.5C266.6,262,272,262,277.6,262z M181.8,261.1c-1.1,9,3.1,15.3,10.4,17.9c6.7,2.4,13.7,2.5,20.7,2.3
			c5.2-0.2,10.3-0.7,15.1-2.8c8.5-3.6,12.3-13.6,8.1-21.9c-0.7-1.4-1.8-2.8-3.1-3.8c-3.3-2.9-7.5-3.8-11.7-4.4
			c-5.3-0.9-10.7-1.6-16-2.4c-1.3-0.2-2.7-0.6-2.7-2.2c0-1.6,1.3-2.2,2.6-2.3c2.4-0.2,4.9-0.3,7.3-0.1c2.1,0.2,4,1,5,3.2
			c0.2,0.4,1,0.6,1.5,0.6c3.2,0.1,6.5,0,9.7,0c2.4,0,4.7,0,7.1,0c1-9.7-3.7-16.1-11.6-18.4c-8.1-2.3-16.4-2.3-24.7-1
			c-4.2,0.7-8.1,2-11.4,4.7c-4.8,4-6,9.2-5.2,15.1c0.8,5.8,4.4,9.2,9.8,10.9c1.4,0.4,2.8,0.9,4.3,1.1c5,0.8,10,1.6,15.1,2.3
			c1,0.2,2,0.2,2.9,0.6c0.8,0.4,1.8,1.2,2,2c0.1,0.5-1.1,1.3-1.8,2c-0.2,0.2-0.4,0.2-0.7,0.2c-3.7,0.7-7.5,0.8-11.1-0.3
			c-1.2-0.4-2.3-1.4-3-2.4c-0.5-0.8-0.9-1.1-1.8-1.1c-4.4,0-8.8,0-13.2,0C184.2,261.1,183,261.1,181.8,261.1z M496.5,279.4
			c0.4,0.1,0.5,0.1,0.6,0.1c15.7-0.1,31.4-0.2,47-0.2c1.4,0,1.6-0.7,1.6-1.8c0-4-0.1-8,0-11.9c0-1.6-0.5-2-2-2
			c-8.1,0-16.3-0.1-24.4-0.1c-1.4,0-2.5,0.1-2.5-1.9c0-2.1,1.1-2,2.6-2c7.8,0,15.6-0.1,23.3-0.1c1.4,0,2-0.4,1.9-1.9
			c-0.1-2.5,0-5,0-7.5c0-2.9,0-2.9-2.9-2.9c-7.6,0-15.2-0.1-22.8-0.1c-0.6,0-1.6-0.2-1.9-0.6c-1-1.7,0-3.3,2.1-3.3
			c8.2-0.1,16.4-0.1,24.6-0.1c1.5,0,2.1-0.4,2-2c-0.1-3.7,0-7.5,0-11.2c0-2.5,0-2.6-2.5-2.6c-14.9-0.1-29.9-0.2-44.8-0.2
			c-0.6,0-1.2,0.1-1.9,0.1C496.5,244.5,496.5,261.9,496.5,279.4z M366.7,226.8c-6.6,0-13.1,0-19.5,0c-1.4,0-2,0.4-2.4,1.8
			c-3.2,10-6.4,19.9-9.7,29.9c-0.2,0.7-0.9,1.6-1.6,1.8c-1.4,0.4-1.4-1-1.7-1.9c-3.2-9.9-6.5-19.9-9.7-29.8
			c-0.4-1.2-0.9-1.8-2.3-1.7c-3.5,0.1-7,0-10.5,0c-3,0-5.9,0-9.1,0c0.2,0.6,0.3,1,0.4,1.4c5.9,16.7,11.8,33.3,17.7,50
			c0.4,1.1,0.9,1.5,2.1,1.5c8.3-0.1,16.7-0.1,25,0c1.8,0,2.6-0.5,3.3-2.2c5.7-16.2,11.5-32.4,17.2-48.6
			C366.3,228.3,366.4,227.6,366.7,226.8z M491.9,279.6c0-5.2-0.1-10.2,0-15.2c0-1.5-0.5-1.8-1.9-1.8c-7.5,0-14.9,0-22.4,0
			c-0.7,0-1.4,0-2.3,0c0-12,0-23.7,0-35.5c-7,0-13.7,0-20.5,0c0,17.6,0,35.1,0,52.6C460.4,279.6,476,279.6,491.9,279.6z
			 M393.3,279.5c15.8,0,31.4,0,47.1,0c0-5.7,0-11.3,0-17.1c-0.8,0-1.5,0-2.1,0c-7.5,0-14.9,0-22.4,0c-1.6,0-2.1-0.4-2.1-2
			c0.1-10.5,0-20.9,0-31.4c0-0.7,0-1.4,0-2.1c-7,0-13.8,0-20.6,0C393.3,244.5,393.3,261.9,393.3,279.5z M368.8,226.9
			c0,17.6,0,35.1,0,52.6c6.9,0,13.7,0,20.4,0c0-17.6,0-35.1,0-52.6C382.4,226.9,375.7,226.9,368.8,226.9z"/>
		<path d="M56.4,226.8c7.6,0,15.1,0,22.5,0.1c0.6,0,1.4,0.8,1.8,1.4c3.8,7,7.6,14,11.4,21c0.5,1,1.1,1.8,2.6,1.1
			c0-7.7,0-15.5,0-23.5c6.8,0,13.3,0,20,0c0,17.5,0,35,0,52.6c-0.6,0-1.1,0.1-1.6,0.1c-6.6,0-13.1,0-19.6,0c-1.3,0-2-0.4-2.6-1.5
			c-3.9-7-7.8-14-11.7-21c-0.6-1-1.1-1.8-2.7-1.1c0,7.7,0,15.6,0,23.5c-6.8,0-13.3,0-20,0C56.4,262.1,56.4,244.5,56.4,226.8z"/>
		<path d="M277.6,262c-5.6,0-11,0-16.6,0c0,5.8,0,11.6,0,17.5c-7,0-13.7,0-20.7,0c0-17.5,0-35,0-52.6c6.8,0,13.6,0,20.5,0
			c0,5.8,0,11.6,0,17.5c5.6,0,11,0,16.7,0c0-5.8,0-11.6,0-17.5c7,0,13.8,0,20.7,0c0,17.5,0,35,0,52.6c-6.8,0-13.6,0-20.6,0
			C277.6,273.7,277.6,268,277.6,262z"/>
		<path d="M181.8,261.1c1.2,0,2.4,0,3.6,0c4.4,0,8.8,0,13.2,0c0.9,0,1.3,0.3,1.8,1.1c0.7,1,1.8,2.1,3,2.4c3.6,1.1,7.4,1,11.1,0.3
			c0.2,0,0.5-0.1,0.7-0.2c0.7-0.6,1.9-1.4,1.8-2c-0.2-0.8-1.1-1.6-2-2c-0.8-0.4-1.9-0.4-2.9-0.6c-5-0.8-10-1.5-15.1-2.3
			c-1.4-0.2-2.9-0.6-4.3-1.1c-5.4-1.7-9-5.1-9.8-10.9c-0.8-5.9,0.4-11.1,5.2-15.1c3.3-2.7,7.2-4.1,11.4-4.7c8.3-1.3,16.6-1.4,24.7,1
			c7.9,2.3,12.6,8.7,11.6,18.4c-2.3,0-4.7,0-7.1,0c-3.2,0-6.5,0-9.7,0c-0.5,0-1.3-0.3-1.5-0.6c-1-2.2-2.9-3.1-5-3.2
			c-2.4-0.2-4.9-0.1-7.3,0.1c-1.3,0.1-2.6,0.7-2.6,2.3c0,1.6,1.4,2,2.7,2.2c5.3,0.8,10.7,1.5,16,2.4c4.2,0.7,8.4,1.6,11.7,4.4
			c1.2,1.1,2.3,2.4,3.1,3.8c4.2,8.3,0.4,18.3-8.1,21.9c-4.8,2-9.9,2.6-15.1,2.8c-7,0.2-14,0.1-20.7-2.3
			C184.9,276.4,180.7,270.1,181.8,261.1z"/>
		<path d="M496.5,279.4c0-17.5,0-34.9,0-52.5c0.7,0,1.3-0.1,1.9-0.1c14.9,0.1,29.9,0.2,44.8,0.2c2.5,0,2.5,0,2.5,2.6
			c0,3.7-0.1,7.5,0,11.2c0,1.6-0.5,2-2,2c-8.2,0-16.4,0.1-24.6,0.1c-2,0-3,1.6-2.1,3.3c0.2,0.4,1.2,0.6,1.9,0.6
			c7.6,0.1,15.2,0.1,22.8,0.1c2.9,0,2.9,0,2.9,2.9c0,2.5-0.1,5,0,7.5c0.1,1.5-0.5,1.9-1.9,1.9c-7.8,0-15.6,0.1-23.3,0.1
			c-1.5,0-2.6,0-2.6,2c0,2,1.1,1.9,2.5,1.9c8.1,0,16.3,0.1,24.4,0.1c1.5,0,2.1,0.4,2,2c-0.1,4-0.1,8,0,11.9c0,1.2-0.2,1.8-1.6,1.8
			c-15.7,0.1-31.4,0.1-47,0.2C497,279.6,496.8,279.5,496.5,279.4z"/>
		<path d="M366.7,226.8c-0.3,0.8-0.4,1.4-0.6,2.1c-5.8,16.2-11.5,32.4-17.2,48.6c-0.6,1.8-1.4,2.3-3.3,2.2c-8.3-0.1-16.7-0.1-25,0
			c-1.2,0-1.7-0.4-2.1-1.5c-5.9-16.7-11.8-33.3-17.7-50c-0.1-0.4-0.2-0.8-0.4-1.4c3.1,0,6.1,0,9.1,0c3.5,0,7,0.1,10.5,0
			c1.4,0,1.9,0.5,2.3,1.7c3.2,10,6.4,19.9,9.7,29.8c0.3,0.9,0.3,2.3,1.7,1.9c0.7-0.2,1.3-1.1,1.6-1.8c3.3-9.9,6.5-19.9,9.7-29.9
			c0.4-1.3,1-1.8,2.4-1.8C353.6,226.9,360.1,226.8,366.7,226.8z"/>
		<path d="M491.9,279.6c-15.9,0-31.4,0-47.1,0c0-17.5,0-35,0-52.6c6.8,0,13.5,0,20.5,0c0,11.8,0,23.5,0,35.5c0.9,0,1.6,0,2.3,0
			c7.5,0,14.9,0.1,22.4,0c1.4,0,1.9,0.3,1.9,1.8C491.8,269.3,491.9,274.3,491.9,279.6z"/>
		<path d="M393.3,279.5c0-17.6,0-35.1,0-52.6c6.8,0,13.5,0,20.6,0c0,0.7,0,1.4,0,2.1c0,10.5,0,20.9,0,31.4c0,1.6,0.4,2.1,2.1,2
			c7.5-0.1,14.9,0,22.4,0c0.7,0,1.3,0,2.1,0c0,5.8,0,11.4,0,17.1C424.8,279.5,409.2,279.5,393.3,279.5z"/>
		<path d="M368.8,226.9c6.9,0,13.6,0,20.4,0c0,17.6,0,35,0,52.6c-6.8,0-13.5,0-20.4,0C368.8,262,368.8,244.5,368.8,226.9z"/>
	</g>
	<path d="M182.7,277.9c-5.9-16.6-11.8-33.2-17.6-49.8c-0.4-1.1-0.9-1.5-2.1-1.5c-8.5,0.1-17,0.1-25.5,0c-1.5,0-2.1,0.5-2.5,1.9
		c-5.8,16.4-11.6,32.7-17.4,49.1c-0.2,0.6-0.3,1.1-0.6,1.9c5.7,0,11.2,0,16.7,0c4.5,0,4.5,0,5.8-4.2c0.3-1.2,0.9-1.5,2-1.5
		c4.3,0.1,8.7,0,13,0c1.8,0,4.1-0.6,5.4,0.3c1.2,0.9,1.4,3.2,2,4.9c0,0.1,0.1,0.1,0.2,0.4c7,0,14,0,21.1,0
		C183,278.9,182.9,278.4,182.7,277.9z M144.5,259.6c0.5-1.7,1-3.3,1.4-4.8c0.6-1.9,1.2-3.8,1.8-5.8c0.3-1.2,0.7-2,2.2-2
		c1.7,0,2,0.8,2.4,2c1,3.5,2.1,6.9,3.2,10.6C151.7,259.6,148.3,259.6,144.5,259.6z"/>
</g>
<g>
	<g>
		<line class="st2" x1="332.4" y1="300.5" x2="346.6" y2="300.5"/>
		<line class="st3" x1="339.4" y1="300.5" x2="346.6" y2="300.5"/>
		<line class="st2" x1="339.5" y1="307.6" x2="339.5" y2="293.5"/>
	</g>
	<g>
		<path class="st4" d="M66.3,308.7l-1.9-4.2h-2v4.2H57v-16.1h7.8c2.2,0,3.9,0.5,5.1,1.5c1.2,1,1.8,2.4,1.8,4.3c0,1.2-0.2,2.2-0.7,3
			c-0.4,0.9-1.1,1.6-1.9,2.1l3.2,5.2H66.3z M62.4,300.5h2.5c0.6,0,1-0.2,1.3-0.5c0.3-0.3,0.5-0.8,0.5-1.4c0-0.6-0.2-1.1-0.5-1.4
			c-0.3-0.3-0.8-0.5-1.3-0.5h-2.5V300.5z"/>
		<path class="st4" d="M75.3,292.6h13.6v4h-8.3v2h7.5v4h-7.5v2h8.5v4H75.3V292.6z"/>
		<path class="st4" d="M101.8,296.8c-1.1-0.4-1.9-0.6-2.6-0.6c-0.7,0-1,0.2-1,0.7c0,0.4,0.2,0.7,0.6,0.9c0.4,0.2,1.1,0.4,2,0.7
			c1.2,0.3,2.1,0.6,2.9,1c0.8,0.3,1.4,0.8,2,1.5c0.6,0.7,0.9,1.6,0.9,2.7c0,1.2-0.3,2.1-0.9,2.9s-1.4,1.4-2.4,1.8
			c-1,0.4-2.2,0.6-3.4,0.6c-1.4,0-2.9-0.2-4.3-0.7c-1.4-0.5-2.7-1.1-3.8-1.9l2-4c0.8,0.7,1.8,1.3,3.1,1.8c1.2,0.5,2.3,0.7,3.1,0.7
			c0.4,0,0.7-0.1,0.9-0.2c0.2-0.1,0.3-0.4,0.3-0.7c0-0.4-0.2-0.7-0.7-0.9c-0.4-0.2-1.1-0.4-2.1-0.7c-1.1-0.3-2.1-0.6-2.8-0.9
			c-0.8-0.3-1.4-0.8-2-1.5s-0.8-1.5-0.8-2.6c0-1.1,0.3-2,0.9-2.8c0.6-0.8,1.4-1.4,2.4-1.9c1-0.4,2.3-0.6,3.6-0.6
			c1.3,0,2.5,0.2,3.8,0.5c1.2,0.4,2.3,0.8,3.3,1.4l-1.9,4.1C103.9,297.6,102.9,297.2,101.8,296.8z"/>
		<path class="st4" d="M108.4,292.6H123v4.2h-4.6v11.9H113v-11.9h-4.6V292.6z"/>
		<path class="st4" d="M135.7,308.7l-0.8-2.3h-6l-0.8,2.3h-5.5l6.8-16.1h5.5l6.6,16.1H135.7z M130.2,302.6h3.4l-1.7-4.7L130.2,302.6
			z"/>
		<path class="st4" d="M148.3,303.9c0.5,0.5,1,0.7,1.7,0.7c0.6,0,1.1-0.2,1.6-0.7c0.4-0.5,0.6-1.1,0.6-1.9v-9.4h5.3v9.4
			c0,1.4-0.3,2.6-0.9,3.7c-0.6,1.1-1.5,1.9-2.6,2.5c-1.1,0.6-2.5,0.9-4,0.9c-1.5,0-2.9-0.3-4-0.9c-1.2-0.6-2.1-1.4-2.7-2.5
			c-0.6-1.1-1-2.3-1-3.7v-9.4h5.3v9.4C147.6,302.8,147.8,303.4,148.3,303.9z"/>
		<path class="st4" d="M170.3,308.7l-1.9-4.2h-2v4.2H161v-16.1h7.8c2.2,0,3.9,0.5,5.1,1.5s1.8,2.4,1.8,4.3c0,1.2-0.2,2.2-0.7,3
			c-0.4,0.9-1.1,1.6-1.9,2.1l3.2,5.2H170.3z M166.4,300.5h2.5c0.6,0,1-0.2,1.3-0.5c0.3-0.3,0.5-0.8,0.5-1.4c0-0.6-0.2-1.1-0.5-1.4
			c-0.3-0.3-0.8-0.5-1.3-0.5h-2.5V300.5z"/>
		<path class="st4" d="M191,308.7l-0.8-2.3h-6l-0.8,2.3h-5.5l6.8-16.1h5.5l6.6,16.1H191z M185.6,302.6h3.4l-1.7-4.7L185.6,302.6z"/>
		<path class="st4" d="M210,292.6h4.8v16.1h-4.5l-6.3-8.2v8.2h-4.9v-16.1h4.5l6.4,8.3V292.6z"/>
		<path class="st4" d="M217.7,292.6h14.5v4.2h-4.6v11.9h-5.3v-11.9h-4.6V292.6z"/>
		<path class="st4" d="M264.3,292.6h5.5l-5.5,16.1h-5.5l-2.4-9.6l-2.5,9.6h-5.5l-5.4-16.1h5.7l2.6,10.6l2.6-10.6h5.2l2.6,10.6
			L264.3,292.6z"/>
		<path class="st4" d="M272.3,292.6H286v4h-8.3v2h7.5v4h-7.5v2h8.5v4h-13.8V292.6z"/>
		<path class="st4" d="M289.8,292.6h13.6v4h-8.3v2h7.5v4h-7.5v2h8.5v4h-13.8V292.6z"/>
		<path class="st4" d="M323.8,308.7h-6.4l-3.4-5.6l-1.5,1.7v3.9h-5.3v-16.1h5.3v5.9l4.8-5.9h6.1l-5.8,6.4L323.8,308.7z"/>
		<path class="st0" d="M356.7,292.6h12.1l0,3.4h-7.8v3.6h7.2v3.4h-7.2v5.8h-4.2V292.6z"/>
		<path class="st0" d="M372.2,292.6h12.7v3.4h-8.5v3h7.7v3.3l-7.7,0v3h8.7v3.4h-12.9V292.6z"/>
		<path class="st0" d="M400.1,293.1c0.9,0.3,1.6,0.8,2.1,1.4c0.5,0.6,0.7,1.3,0.7,2.2c0,0.8-0.2,1.6-0.7,2.2s-1.2,1.1-2,1.3
			c1,0.2,1.8,0.7,2.4,1.4c0.6,0.7,0.9,1.6,0.9,2.7c0,0.9-0.3,1.7-0.8,2.4c-0.5,0.7-1.2,1.2-2.2,1.6s-2,0.5-3.3,0.5h-8v-16.1h7.7
			C398.1,292.6,399.2,292.7,400.1,293.1z M398.1,298.6c0.3-0.3,0.5-0.7,0.5-1.2c0-0.5-0.2-0.9-0.5-1.1c-0.3-0.3-0.8-0.4-1.4-0.4
			h-3.2v3.1h3.2C397.3,299,397.7,298.8,398.1,298.6z M398.5,305c0.4-0.3,0.6-0.7,0.6-1.3c0-0.5-0.2-0.9-0.6-1.2
			c-0.4-0.3-1-0.4-1.7-0.4h-3.2v3.4h3.2C397.4,305.4,398,305.3,398.5,305z"/>
		<path class="st0" d="M425.6,302v3.2h-2.1v3.5h-3.9v-3.5h-7.3v-2.9l4.6-9.8h4l-4.3,9.5h3v-3.4h3.9v3.4H425.6z"/>
		<path class="st0" d="M433.1,299.5h9.4v2.6h-9.4V299.5z"/>
		<path class="st0" d="M448.5,292.6h7.3v16.1h-4.2V296h-3.1V292.6z"/>
		<path class="st0" d="M473.1,294.5c1.2,1.4,1.9,3.4,1.9,6.1c0,2.6-0.6,4.7-1.9,6.1s-3,2.1-5.3,2.1c-2.3,0-4.1-0.7-5.3-2.1
			s-1.9-3.4-1.9-6.1c0-2.6,0.6-4.7,1.9-6.1c1.2-1.4,3-2.1,5.3-2.1C470.1,292.4,471.9,293.1,473.1,294.5z M465.6,296.7
			c-0.4,0.8-0.7,2.1-0.7,3.9c0,1.8,0.2,3.1,0.7,3.9c0.4,0.8,1.2,1.2,2.2,1.2c1,0,1.7-0.4,2.2-1.2c0.5-0.8,0.7-2.1,0.7-3.9
			s-0.2-3.1-0.7-3.9c-0.5-0.8-1.2-1.2-2.2-1.2C466.8,295.6,466.1,295.9,465.6,296.7z"/>
		<path class="st0" d="M481.6,305.4c0.4,0.3,0.6,0.8,0.6,1.4c0,0.5-0.2,1-0.5,1.6l-1.8,3.1h-2l1.2-3.1c-0.5-0.4-0.8-0.9-0.8-1.6
			c0-0.6,0.2-1,0.6-1.4c0.4-0.4,0.8-0.6,1.4-0.6C480.8,304.9,481.3,305.1,481.6,305.4z"/>
		<path class="st0" d="M504.3,305.3v3.4h-12.3l0-2.8l5.9-6c0.5-0.5,0.8-1,1.1-1.4c0.3-0.5,0.4-0.9,0.4-1.2c0-0.4-0.2-0.8-0.5-1
			c-0.3-0.2-0.8-0.4-1.4-0.4c-0.6,0-1.4,0.2-2.2,0.5c-0.8,0.4-1.6,0.9-2.3,1.5l-1.6-3.1c2.2-1.6,4.5-2.4,6.7-2.4
			c1.1,0,2,0.2,2.9,0.5c0.9,0.4,1.5,0.9,2,1.5c0.5,0.6,0.7,1.4,0.7,2.2s-0.3,1.7-0.8,2.6c-0.5,0.9-1.3,1.8-2.3,2.8l-3.3,3.3H504.3z"
			/>
		<path class="st0" d="M519.1,294.5c1.2,1.4,1.9,3.4,1.9,6.1c0,2.6-0.6,4.7-1.9,6.1s-3,2.1-5.3,2.1c-2.3,0-4.1-0.7-5.3-2.1
			s-1.9-3.4-1.9-6.1c0-2.6,0.6-4.7,1.9-6.1c1.2-1.4,3-2.1,5.3-2.1C516.1,292.4,517.9,293.1,519.1,294.5z M511.7,296.7
			c-0.4,0.8-0.7,2.1-0.7,3.9c0,1.8,0.2,3.1,0.7,3.9c0.4,0.8,1.2,1.2,2.2,1.2c1,0,1.7-0.4,2.2-1.2c0.5-0.8,0.7-2.1,0.7-3.9
			s-0.2-3.1-0.7-3.9s-1.2-1.2-2.2-1.2C512.8,295.6,512.1,295.9,511.7,296.7z"/>
		<path class="st0" d="M523.1,292.6h7.3v16.1h-4.2V296h-3.1V292.6z"/>
		<path class="st0" d="M537.8,305.4c0.6,0.2,1.2,0.3,1.8,0.3c1.2,0,2.2-0.4,2.8-1.1c0.6-0.7,0.9-1.8,0.9-3.1
			c-0.8,1.2-2.1,1.7-3.7,1.7c-1,0-1.9-0.2-2.7-0.7c-0.8-0.4-1.4-1-1.8-1.8c-0.4-0.8-0.6-1.7-0.6-2.7c0-1.1,0.2-2.1,0.7-2.9
			c0.5-0.8,1.2-1.5,2.1-1.9c0.9-0.5,1.9-0.7,3.1-0.7c1.4,0,2.6,0.3,3.7,1c1,0.6,1.8,1.6,2.4,2.8c0.6,1.2,0.8,2.6,0.8,4.3
			c0,1.7-0.3,3.2-0.9,4.5s-1.5,2.3-2.6,3c-1.1,0.7-2.4,1-3.9,1c-0.9,0-1.8-0.1-2.7-0.4s-1.7-0.6-2.4-1l1.5-2.9
			C536.7,305,537.2,305.2,537.8,305.4z M538.7,296.3c-0.4,0.4-0.6,0.9-0.6,1.7c0,0.7,0.2,1.2,0.6,1.6c0.4,0.4,0.9,0.6,1.6,0.6
			c0.8,0,1.4-0.2,1.8-0.6s0.6-1,0.6-1.6c0-0.6-0.2-1.2-0.6-1.6c-0.4-0.4-1-0.6-1.7-0.6C539.7,295.7,539.1,295.9,538.7,296.3z"/>
	</g>
</g>
</svg>
