<svg xmlns="http://www.w3.org/2000/svg" width="594.3" height="400" viewBox="0 0 594.3 400"><title>enrw-logo-bigeast-color-2020</title><path d="M54.6,89.7H166.3v36.9h-65v7.9h62.5v29.4H101.4v7.6h65v37H54.7C54.6,168.9,54.6,129.4,54.6,89.7Z"/><path d="M319.3,208.6h-46c-1.5,0-2.2-.4-2.6-1.9-.8-3.2-1.9-6.3-2.8-9.5a1.79,1.79,0,0,0-2-1.5H223.1a1.69,1.69,0,0,0-1.9,1.4l-3,9.9c-.3,1-.7,1.6-2,1.6H170.7a8.14,8.14,0,0,1-.9-.2l.6-2.1Q190.65,149,211,91.7a2.88,2.88,0,0,1,3.2-2.3q30.3.15,60.6,0a2.65,2.65,0,0,1,3,2q20.25,57.15,40.6,114.4C318.7,206.7,318.9,207.5,319.3,208.6Zm-62.4-47.1q-.3-1.35-.6-2.4c-2-6.8-4.1-13.6-6.2-20.4-1.7-5.7-1.7-5.7-7.6-5.7a2.07,2.07,0,0,0-2.4,1.8c-2.4,8.3-5,16.5-7.5,24.7a10.62,10.62,0,0,0-.4,1.9C240.5,161.5,248.5,161.5,256.9,161.5Z"/><path d="M400.3,140.3c-11-1.9-22.1-3.4-33.2-5.1a33.65,33.65,0,0,1-5.5-1.2,4.26,4.26,0,0,1-3.3-3.9c-.1-2.3,1.2-3.5,3-4.3a13.36,13.36,0,0,1,1.8-.7,39.92,39.92,0,0,1,20.3.6,9.25,9.25,0,0,1,6.5,5.8c.5,1.5,1.3,1.7,2.6,1.7h7.8V92.8a85.14,85.14,0,0,0-10.1-1.7,149,149,0,0,0-29.1-.4A73,73,0,0,0,337.6,96c-8.3,3.6-15.2,8.9-18.9,17.4-2.7,6.1-3.2,12.6-2.4,19.2,1,9.5,5.4,16.9,13.8,21.6a48.18,48.18,0,0,0,16.4,5.5c10.5,1.7,21.1,3.2,31.7,4.9a58.7,58.7,0,0,1,8.3,1.9,3.57,3.57,0,0,1,2.6,3.5,3.84,3.84,0,0,1-2.4,3.7,17.63,17.63,0,0,1-5.4,1.6,109.46,109.46,0,0,1-14,.3,39.46,39.46,0,0,1-9.5-2.1,6,6,0,0,1-4.4-4.8c-.3-1.6-1-1.9-2.4-1.9-11.7.1-23.5,0-35.2,0h-2.4c.2,3.5.2,6.7.5,9.8,1.2,11.2,6.3,20,16.3,25.5,6.8,3.7,14.2,5.5,21.7,6.5a177.09,177.09,0,0,0,34.9.8,100.34,100.34,0,0,0,13.4-1.8V140.3Z" style="fill:#fd0b85"/><path d="M506.2,129.3v3.1q0,37.35.1,74.7c0,2.1-.6,2.6-2.7,2.6-13.7-.1-27.4,0-41.2,0h-2.6V129.4H414.6c-1.8,0-2.4-.4-2.3-2.3.1-11.4,0-22.8,0-34.1V90.8c.9,0,1.6-.1,2.2-.1,41.5.1,90.5.1,132,.2,2.9,0,2.9,0,2.9,3,0,10.9-.1,21.8,0,32.7,0,2.1-.5,2.7-2.6,2.7-12.1-.1-25.8,0-37.9.1A21.79,21.79,0,0,0,506.2,129.3Z"/><path d="M56.4,226.8v52.8h20V256.1c1.6-.6,2.1.1,2.7,1.1l11.7,21a2.42,2.42,0,0,0,2.6,1.5c6.5-.1,13.1,0,19.6,0,.5,0,1.1-.1,1.6-.1V227h-20v23.5c-1.5.7-2-.1-2.6-1.1-3.8-7-7.5-14-11.4-21a2.75,2.75,0,0,0-1.8-1.4C71.5,226.8,64.1,226.8,56.4,226.8ZM277.6,262v17.5h20.6V226.9H277.5v17.5H260.8V226.9H240.3v52.6H261V262Zm-95.8-.9c-1.1,9,3.1,15.3,10.4,17.9,6.7,2.4,13.7,2.5,20.7,2.3,5.2-.2,10.3-.7,15.1-2.8a16,16,0,0,0,8.1-21.9,11.3,11.3,0,0,0-3.1-3.8c-3.3-2.9-7.5-3.8-11.7-4.4-5.3-.9-10.7-1.6-16-2.4-1.3-.2-2.7-.6-2.7-2.2s1.3-2.2,2.6-2.3a44.5,44.5,0,0,1,7.3-.1,5.58,5.58,0,0,1,5,3.2c.2.4,1,.6,1.5.6,3.2.1,6.5,0,9.7,0h7.1c1-9.7-3.7-16.1-11.6-18.4-8.1-2.3-16.4-2.3-24.7-1a23.53,23.53,0,0,0-11.4,4.7c-4.8,4-6,9.2-5.2,15.1s4.4,9.2,9.8,10.9a30.09,30.09,0,0,0,4.3,1.1c5,.8,10,1.6,15.1,2.3a13.56,13.56,0,0,1,2.9.6,3.9,3.9,0,0,1,2,2c.1.5-1.1,1.3-1.8,2a.84.84,0,0,1-.7.2,23.15,23.15,0,0,1-11.1-.3,6.45,6.45,0,0,1-3-2.4,1.83,1.83,0,0,0-1.8-1.1H185.4A21.74,21.74,0,0,1,181.8,261.1Zm314.7,18.3a2.14,2.14,0,0,0,.6.1c15.7-.1,31.4-.2,47-.2,1.4,0,1.6-.7,1.6-1.8,0-4-.1-8,0-11.9,0-1.6-.5-2-2-2-8.1,0-16.3-.1-24.4-.1-1.4,0-2.5.1-2.5-1.9s1.1-2,2.6-2c7.8,0,15.6-.1,23.3-.1,1.4,0,2-.4,1.9-1.9-.1-2.5,0-5,0-7.5,0-2.9,0-2.9-2.9-2.9-7.6,0-15.2-.1-22.8-.1a2.88,2.88,0,0,1-1.9-.6c-1-1.7,0-3.3,2.1-3.3,8.2-.1,16.4-.1,24.6-.1,1.5,0,2.1-.4,2-2-.1-3.7,0-7.5,0-11.2,0-2.5,0-2.6-2.5-2.6-14.9-.1-29.9-.2-44.8-.2-.6,0-1.2.1-1.9.1ZM366.7,226.8H347.2a2.07,2.07,0,0,0-2.4,1.8c-3.2,10-6.4,19.9-9.7,29.9a2.87,2.87,0,0,1-1.6,1.8c-1.4.4-1.4-1-1.7-1.9-3.2-9.9-6.5-19.9-9.7-29.8-.4-1.2-.9-1.8-2.3-1.7-3.5.1-7,0-10.5,0h-9.1c.2.6.3,1,.4,1.4,5.9,16.7,11.8,33.3,17.7,50a1.89,1.89,0,0,0,2.1,1.5c8.3-.1,16.7-.1,25,0a3,3,0,0,0,3.3-2.2c5.7-16.2,11.5-32.4,17.2-48.6A14.27,14.27,0,0,0,366.7,226.8Zm125.2,52.8c0-5.2-.1-10.2,0-15.2,0-1.5-.5-1.8-1.9-1.8H465.3V227.1H444.8v52.6C460.4,279.6,476,279.6,491.9,279.6Zm-98.6-.1h47.1V262.4H415.9c-1.6,0-2.1-.4-2.1-2,.1-10.5,0-20.9,0-31.4v-2.1H393.2C393.3,244.5,393.3,261.9,393.3,279.5Zm-24.5-52.6v52.6h20.4V226.9Z" style="fill:#fff"/><path d="M56.4,226.8c7.6,0,15.1,0,22.5.1.6,0,1.4.8,1.8,1.4l11.4,21c.5,1,1.1,1.8,2.6,1.1V226.9h20v52.6c-.6,0-1.1.1-1.6.1H93.5a2.55,2.55,0,0,1-2.6-1.5l-11.7-21c-.6-1-1.1-1.8-2.7-1.1v23.5h-20C56.4,262.1,56.4,244.5,56.4,226.8Z"/><path d="M277.6,262H261v17.5H240.3V226.9h20.5v17.5h16.7V226.9h20.7v52.6H277.6Z"/><path d="M181.8,261.1h16.8a1.83,1.83,0,0,1,1.8,1.1,5.89,5.89,0,0,0,3,2.4,23.15,23.15,0,0,0,11.1.3,1.85,1.85,0,0,0,.7-.2c.7-.6,1.9-1.4,1.8-2a3.56,3.56,0,0,0-2-2,12.39,12.39,0,0,0-2.9-.6c-5-.8-10-1.5-15.1-2.3a22.64,22.64,0,0,1-4.3-1.1c-5.4-1.7-9-5.1-9.8-10.9s.4-11.1,5.2-15.1a22.61,22.61,0,0,1,11.4-4.7c8.3-1.3,16.6-1.4,24.7,1,7.9,2.3,12.6,8.7,11.6,18.4H219a2.29,2.29,0,0,1-1.5-.6,5.41,5.41,0,0,0-5-3.2,44.5,44.5,0,0,0-7.3.1c-1.3.1-2.6.7-2.6,2.3s1.4,2,2.7,2.2c5.3.8,10.7,1.5,16,2.4,4.2.7,8.4,1.6,11.7,4.4a16.14,16.14,0,0,1,3.1,3.8,16,16,0,0,1-8.1,21.9c-4.8,2-9.9,2.6-15.1,2.8-7,.2-14,.1-20.7-2.3C184.9,276.4,180.7,270.1,181.8,261.1Z"/><path d="M496.5,279.4V226.9c.7,0,1.3-.1,1.9-.1,14.9.1,29.9.2,44.8.2,2.5,0,2.5,0,2.5,2.6,0,3.7-.1,7.5,0,11.2,0,1.6-.5,2-2,2-8.2,0-16.4.1-24.6.1-2,0-3,1.6-2.1,3.3.2.4,1.2.6,1.9.6,7.6.1,15.2.1,22.8.1,2.9,0,2.9,0,2.9,2.9,0,2.5-.1,5,0,7.5.1,1.5-.5,1.9-1.9,1.9-7.8,0-15.6.1-23.3.1-1.5,0-2.6,0-2.6,2s1.1,1.9,2.5,1.9c8.1,0,16.3.1,24.4.1,1.5,0,2.1.4,2,2-.1,4-.1,8,0,11.9,0,1.2-.2,1.8-1.6,1.8-15.7.1-31.4.1-47,.2C497,279.6,496.8,279.5,496.5,279.4Z"/><path d="M366.7,226.8c-.3.8-.4,1.4-.6,2.1q-8.7,24.3-17.2,48.6c-.6,1.8-1.4,2.3-3.3,2.2-8.3-.1-16.7-.1-25,0a1.89,1.89,0,0,1-2.1-1.5c-5.9-16.7-11.8-33.3-17.7-50-.1-.4-.2-.8-.4-1.4h9.1c3.5,0,7,.1,10.5,0a2,2,0,0,1,2.3,1.7c3.2,10,6.4,19.9,9.7,29.8.3.9.3,2.3,1.7,1.9a3.18,3.18,0,0,0,1.6-1.8c3.3-9.9,6.5-19.9,9.7-29.9a2.14,2.14,0,0,1,2.4-1.8C353.6,226.9,360.1,226.8,366.7,226.8Z"/><path d="M491.9,279.6H444.8V227h20.5v35.5h2.3c7.5,0,14.9.1,22.4,0,1.4,0,1.9.3,1.9,1.8C491.8,269.3,491.9,274.3,491.9,279.6Z"/><path d="M393.3,279.5V226.9h20.6v33.5c0,1.6.4,2.1,2.1,2,7.5-.1,14.9,0,22.4,0h2.1v17.1Z"/><path d="M368.8,226.9h20.4v52.6H368.8Z"/><path d="M182.7,277.9q-8.85-24.9-17.6-49.8a1.89,1.89,0,0,0-2.1-1.5q-12.75.15-25.5,0a2.18,2.18,0,0,0-2.5,1.9c-5.8,16.4-11.6,32.7-17.4,49.1-.2.6-.3,1.1-.6,1.9h16.7c4.5,0,4.5,0,5.8-4.2a1.72,1.72,0,0,1,2-1.5c4.3.1,8.7,0,13,0,1.8,0,4.1-.6,5.4.3s1.4,3.2,2,4.9c0,.1.1.1.2.4h21.1C183,278.9,182.9,278.4,182.7,277.9Zm-38.2-18.3c.5-1.7,1-3.3,1.4-4.8.6-1.9,1.2-3.8,1.8-5.8.3-1.2.7-2,2.2-2,1.7,0,2,.8,2.4,2,1,3.5,2.1,6.9,3.2,10.6Z"/><line x1="329.44" y1="302.54" x2="343.61" y2="302.54" style="fill:none;stroke:#000;stroke-miterlimit:10;stroke-width:2px"/><line x1="336.44" y1="302.54" x2="343.61" y2="302.54" style="fill:none;stroke:#fd0b85;stroke-miterlimit:10;stroke-width:2px"/><line x1="336.52" y1="309.63" x2="336.52" y2="295.46" style="fill:none;stroke:#000;stroke-miterlimit:10;stroke-width:2px"/><path d="M65.31,310.69l-1.93-4.19h-2v4.19H56V294.56h7.8a7.7,7.7,0,0,1,5.08,1.51,5.26,5.26,0,0,1,1.8,4.27,6.61,6.61,0,0,1-.66,3,5,5,0,0,1-1.9,2.06l3.18,5.25Zm-3.93-8.24h2.46a1.7,1.7,0,0,0,1.34-.52,2,2,0,0,0,.48-1.43,1.91,1.91,0,0,0-.48-1.39,1.76,1.76,0,0,0-1.34-.5H61.38Z" style="fill:#231f20"/><path d="M74.26,294.56H87.9v4.05H79.59v2h7.55v4.05H79.59v2H88.1v4.05H74.26Z" style="fill:#231f20"/><path d="M100.82,298.82a8.29,8.29,0,0,0-2.62-.58q-1,0-1,.72a.93.93,0,0,0,.64.85,12.29,12.29,0,0,0,2,.66,26.05,26.05,0,0,1,2.86,1,5.11,5.11,0,0,1,2,1.53,4.2,4.2,0,0,1,.85,2.75,4.65,4.65,0,0,1-.91,2.93,5.3,5.3,0,0,1-2.45,1.76,9.77,9.77,0,0,1-3.42.58,14,14,0,0,1-4.32-.71,12,12,0,0,1-3.76-1.92l2-4a10.71,10.71,0,0,0,3.06,1.8,8.52,8.52,0,0,0,3.08.75,1.68,1.68,0,0,0,.94-.22.72.72,0,0,0,.35-.68,1,1,0,0,0-.66-.86,11.37,11.37,0,0,0-2-.65,21.32,21.32,0,0,1-2.84-.91,5.11,5.11,0,0,1-2-1.46,4,4,0,0,1-.83-2.65,4.72,4.72,0,0,1,.85-2.81A5.33,5.33,0,0,1,95,294.79a9.45,9.45,0,0,1,3.63-.64,13.88,13.88,0,0,1,3.76.53,12.32,12.32,0,0,1,3.26,1.4l-1.94,4.07A17.5,17.5,0,0,0,100.82,298.82Z" style="fill:#231f20"/><path d="M107.45,294.56H122v4.21h-4.6v11.92H112V298.77h-4.57Z" style="fill:#231f20"/><path d="M134.7,310.69l-.8-2.28h-6.05l-.83,2.28h-5.47l6.8-16.13h5.48l6.55,16.13Zm-5.47-6.1h3.36l-1.66-4.71Z" style="fill:#231f20"/><path d="M147.26,305.88a2.2,2.2,0,0,0,1.66.74,2,2,0,0,0,1.56-.73,2.82,2.82,0,0,0,.62-1.9v-9.43h5.34V304a7.29,7.29,0,0,1-.93,3.72,6.36,6.36,0,0,1-2.64,2.47,8.62,8.62,0,0,1-4,.87,8.86,8.86,0,0,1-4-.87,6.38,6.38,0,0,1-2.69-2.47,7.11,7.11,0,0,1-1-3.72v-9.43h5.34V304A2.65,2.65,0,0,0,147.26,305.88Z" style="fill:#231f20"/><path d="M169.32,310.69l-1.93-4.19h-2v4.19h-5.33V294.56h7.8a7.72,7.72,0,0,1,5.08,1.51,5.28,5.28,0,0,1,1.79,4.27,6.74,6.74,0,0,1-.65,3,5,5,0,0,1-1.9,2.06l3.17,5.25Zm-3.94-8.24h2.47a1.7,1.7,0,0,0,1.34-.52,2.05,2.05,0,0,0,.47-1.43,2,2,0,0,0-.47-1.39,1.76,1.76,0,0,0-1.34-.5h-2.47Z" style="fill:#231f20"/><path d="M190,310.69l-.81-2.28h-6l-.82,2.28h-5.48l6.81-16.13h5.48l6.55,16.13Zm-5.47-6.1h3.35l-1.65-4.71Z" style="fill:#231f20"/><path d="M209,294.56h4.83v16.13h-4.46L203,302.45v8.24h-4.85V294.56h4.46l6.37,8.28Z" style="fill:#231f20"/><path d="M216.65,294.56h14.51v4.21h-4.6v11.92h-5.33V298.77h-4.58Z" style="fill:#231f20"/><path d="M263.32,294.56h5.45l-5.45,16.13h-5.48l-2.41-9.64-2.49,9.64h-5.47l-5.41-16.13h5.71l2.6,10.58,2.57-10.58h5.2l2.62,10.58Z" style="fill:#231f20"/><path d="M271.34,294.56H285v4.05h-8.3v2h7.54v4.05h-7.54v2h8.51v4.05H271.34Z" style="fill:#231f20"/><path d="M288.75,294.56h13.64v4.05h-8.3v2h7.54v4.05h-7.54v2h8.51v4.05H288.75Z" style="fill:#231f20"/><path d="M322.79,310.69h-6.37l-3.4-5.62-1.52,1.71v3.91h-5.33V294.56h5.33v5.89l4.81-5.89h6.14L316.68,301Z" style="fill:#231f20"/><path d="M351.71,294.56h12.05l0,3.36h-7.82v3.59h7.23v3.36h-7.23v5.82h-4.2Z" style="fill:#fd0b85"/><path d="M367.21,294.56h12.72v3.36h-8.51v3h7.68v3.34l-7.68,0v3h8.74v3.36h-13Z" style="fill:#fd0b85"/><path d="M395.1,295.06a4.74,4.74,0,0,1,2.08,1.41,3.38,3.38,0,0,1,.73,2.16,3.44,3.44,0,0,1-.75,2.21,3.69,3.69,0,0,1-2,1.29,4,4,0,0,1,2.43,1.4,4.15,4.15,0,0,1,.88,2.67,3.85,3.85,0,0,1-.76,2.38,4.68,4.68,0,0,1-2.16,1.57,9.15,9.15,0,0,1-3.29.54h-8V294.56h7.66A9.21,9.21,0,0,1,395.1,295.06Zm-2,5.49a1.44,1.44,0,0,0,.51-1.18,1.37,1.37,0,0,0-.51-1.14,2.1,2.1,0,0,0-1.38-.38h-3.22V301h3.22A2.05,2.05,0,0,0,393.08,300.55Zm.37,6.41a1.5,1.5,0,0,0,.64-1.29,1.41,1.41,0,0,0-.64-1.21,2.93,2.93,0,0,0-1.75-.42h-3.22v3.38h3.22A2.93,2.93,0,0,0,393.45,307Z" style="fill:#fd0b85"/><path d="M434.13,301.51h9.39v2.62h-9.39Z" style="fill:#fd0b85"/><path d="M407.77,294.56h7.31v16.13h-4.21V298h-3.1Z" style="fill:#fd0b85"/><path d="M480.63,307.43a1.89,1.89,0,0,1,.56,1.44,3.11,3.11,0,0,1-.53,1.56l-1.84,3.06h-1.95l1.19-3.06a1.79,1.79,0,0,1-.78-1.56,1.9,1.9,0,0,1,2-2A2,2,0,0,1,480.63,307.43Z" style="fill:#fd0b85"/><path d="M458.9,307.31v3.38H446.62l0-2.79,5.87-6a8.83,8.83,0,0,0,1.13-1.43,2.43,2.43,0,0,0,.43-1.22,1.2,1.2,0,0,0-.48-1,2.22,2.22,0,0,0-1.36-.36,5.27,5.27,0,0,0-2.15.54,9.64,9.64,0,0,0-2.29,1.51l-1.61-3.11a11.38,11.38,0,0,1,6.7-2.41,7.5,7.5,0,0,1,2.88.53,4.65,4.65,0,0,1,2,1.49,3.56,3.56,0,0,1,.73,2.21,4.87,4.87,0,0,1-.82,2.57,15.41,15.41,0,0,1-2.31,2.81L452,307.31Z" style="fill:#fd0b85"/><path d="M473.53,307.31v3.38H461.25l0-2.79,5.86-6a8.31,8.31,0,0,0,1.13-1.43,2.46,2.46,0,0,0,.44-1.22,1.18,1.18,0,0,0-.49-1,2.21,2.21,0,0,0-1.35-.36,5.23,5.23,0,0,0-2.15.54,9.44,9.44,0,0,0-2.29,1.51l-1.61-3.11a11.33,11.33,0,0,1,6.69-2.41,7.56,7.56,0,0,1,2.89.53,4.65,4.65,0,0,1,2,1.49,3.61,3.61,0,0,1,.72,2.21,5,5,0,0,1-.81,2.57,15.94,15.94,0,0,1-2.32,2.81l-3.28,3.32Z" style="fill:#fd0b85"/><path d="M529.93,307.31v3.38H517.64l0-2.79,5.87-6a8.23,8.23,0,0,0,1.12-1.43,2.46,2.46,0,0,0,.44-1.22,1.2,1.2,0,0,0-.48-1,2.26,2.26,0,0,0-1.36-.36,5.27,5.27,0,0,0-2.15.54,9.64,9.64,0,0,0-2.29,1.51l-1.61-3.11a11.33,11.33,0,0,1,6.69-2.41,7.52,7.52,0,0,1,2.89.53,4.65,4.65,0,0,1,2,1.49,3.62,3.62,0,0,1,.73,2.21,5,5,0,0,1-.82,2.57,16.29,16.29,0,0,1-2.31,2.81l-3.29,3.32Z" style="fill:#fd0b85"/><path d="M544.42,296.54a10.92,10.92,0,0,1,0,12.16,7.68,7.68,0,0,1-10.6,0,10.92,10.92,0,0,1,0-12.16,7.71,7.71,0,0,1,10.6,0Zm-7.46,2.2a8.24,8.24,0,0,0-.67,3.87,8.33,8.33,0,0,0,.67,3.9,2.56,2.56,0,0,0,4.33,0,8.32,8.32,0,0,0,.68-3.89,8.22,8.22,0,0,0-.68-3.87,2.56,2.56,0,0,0-4.33,0Z" style="fill:#fd0b85"/><path d="M499.52,307.31v3.38H487.24l0-2.79,5.87-6a8.83,8.83,0,0,0,1.13-1.43,2.43,2.43,0,0,0,.43-1.22,1.2,1.2,0,0,0-.48-1,2.22,2.22,0,0,0-1.36-.36,5.27,5.27,0,0,0-2.15.54,9.64,9.64,0,0,0-2.29,1.51l-1.61-3.11a11.38,11.38,0,0,1,6.7-2.41,7.5,7.5,0,0,1,2.88.53,4.65,4.65,0,0,1,2,1.49,3.56,3.56,0,0,1,.73,2.21,4.87,4.87,0,0,1-.82,2.57,15.41,15.41,0,0,1-2.31,2.81l-3.29,3.32Z" style="fill:#fd0b85"/><path d="M514,296.54a10.92,10.92,0,0,1,0,12.16,7.68,7.68,0,0,1-10.6,0,10.92,10.92,0,0,1,0-12.16,7.71,7.71,0,0,1,10.6,0Zm-7.46,2.2a8.24,8.24,0,0,0-.67,3.87,8.33,8.33,0,0,0,.67,3.9,2.57,2.57,0,0,0,4.34,0,8.34,8.34,0,0,0,.67-3.89,8.24,8.24,0,0,0-.67-3.87,2.57,2.57,0,0,0-4.34,0Z" style="fill:#fd0b85"/><path d="M428.06,297.84a5.84,5.84,0,0,0-1.77-.26,3.46,3.46,0,0,0-2.79,1.11,4.61,4.61,0,0,0-.89,3.14,4.27,4.27,0,0,1,3.75-1.75,5.34,5.34,0,0,1,2.69.66,4.57,4.57,0,0,1,1.78,1.84,5.75,5.75,0,0,1,.63,2.75,5.69,5.69,0,0,1-.73,2.93,4.89,4.89,0,0,1-2.07,1.93,6.82,6.82,0,0,1-3.11.68,6.71,6.71,0,0,1-3.66-1,6.23,6.23,0,0,1-2.36-2.76,9.92,9.92,0,0,1-.83-4.25,10.41,10.41,0,0,1,.91-4.49,6.85,6.85,0,0,1,2.56-3,7,7,0,0,1,3.86-1.05,10.35,10.35,0,0,1,2.72.37,9.17,9.17,0,0,1,2.39,1l-1.54,2.9A5.17,5.17,0,0,0,428.06,297.84Zm-1,9.13a2.22,2.22,0,0,0,.6-1.67,2,2,0,0,0-2.21-2.2,2.4,2.4,0,0,0-1.78.63,2.23,2.23,0,0,0-.64,1.64,2.18,2.18,0,0,0,.6,1.57,2.33,2.33,0,0,0,1.75.62A2.31,2.31,0,0,0,427.07,307Z" style="fill:#fd0b85"/></svg>